M48
; DRILL file KiCad 10.0.4 date 2026-08-18T20:37:17
; FORMAT={-:-/ absolute / metric / decimal}
; #@! TF.CreationDate,2026-08-18T20:37:17+02:00
; #@! TF.GenerationSoftware,Kicad,Pcbnew,10.0.4
; #@! TF.FileFunction,Plated,1,2,PTH
FMAT,2
METRIC
; #@! TA.AperFunction,Plated,PTH,ViaDrill
T1C0.400
; #@! TA.AperFunction,Plated,PTH,ViaDrill
T2C0.500
; #@! TA.AperFunction,Plated,PTH,ViaDrill
T3C0.600
; #@! TA.AperFunction,Plated,PTH,ComponentDrill
T4C0.700
; #@! TA.AperFunction,Plated,PTH,ComponentDrill
T5C0.750
; #@! TA.AperFunction,Plated,PTH,ComponentDrill
T6C0.800
; #@! TA.AperFunction,Plated,PTH,ComponentDrill
T7C1.000
; #@! TA.AperFunction,Plated,PTH,ComponentDrill
T8C1.300
%
G90
G05
T1
X59.8Y-112.9
X60.477Y-65.989
X61.062Y-87.909
X63.932Y-166.497
X65.121Y-159.415
X66.421Y-91.948
X67.996Y-183.413
X69.4Y-118.4
X70.104Y-83.312
X71.5Y-111.1
X73.635Y-54.5
X73.914Y-116.078
X76.225Y-147.625
X76.835Y-82.931
X76.835Y-120.3
X78.93Y-64.96
X78.977Y-161.578
X79.146Y-85.7
X79.35Y-91.846
X79.629Y-82.245
X79.807Y-196.647
X80.239Y-154.102
X80.25Y-127.24
X80.264Y-167.386
X80.518Y-63.881
X80.645Y-76.454
X81.712Y-74.168
X81.788Y-82.855
X82.2Y-118.4
X82.753Y-136.296
X82.931Y-63.081
X83.312Y-76.454
X83.706Y-189.696
X84.176Y-84.125
X84.3Y-112.9
X84.963Y-64.478
X85.006Y-180.596
X85.496Y-145.237
X86.006Y-171.496
X86.563Y-85.598
X86.614Y-154.127
X86.806Y-165.506
X87.884Y-63.081
X87.986Y-156.566
X88.0Y-144.9
X88.0Y-159.639
X88.0Y-174.168
X88.0Y-192.126
X88.0Y-196.24
X88.0Y-220.7
X88.011Y-158.039
X88.011Y-176.886
X88.3Y-116.065
X89.408Y-69.723
X89.586Y-166.802
X89.606Y-198.696
X89.789Y-120.287
X90.297Y-64.478
X90.4Y-144.9
X90.5Y-173.0
X90.5Y-178.892
X90.551Y-75.184
X91.999Y-91.999
X92.206Y-179.996
X92.405Y-185.064
X92.837Y-74.168
X92.913Y-82.855
X92.96Y-129.79
X92.964Y-189.687
X94.128Y-133.659
X95.019Y-118.339
X95.453Y-131.115
X95.453Y-142.596
X96.825Y-112.878
X97.1Y-171.327
X97.993Y-218.846
X98.019Y-118.4
X99.187Y-197.612
X99.416Y-202.438
X100.482Y-204.876
X100.5Y-218.9
X100.533Y-150.216
X100.686Y-147.879
X100.838Y-61.214
X101.4Y-221.4
X101.6Y-116.1
X101.727Y-151.333
X102.057Y-55.575
X102.108Y-53.721
X102.108Y-75.311
X103.226Y-123.292
X103.226Y-131.318
X103.378Y-120.287
X103.988Y-150.216
X104.597Y-123.292
X104.648Y-91.897
X104.953Y-164.186
X105.004Y-83.922
X105.105Y-175.717
X105.41Y-222.809
X105.562Y-207.366
X105.664Y-48.641
X105.664Y-59.182
X105.664Y-69.088
X105.664Y-147.879
X105.766Y-184.607
X107.188Y-150.216
X108.001Y-127.762
X108.001Y-170.586
X108.204Y-53.721
X108.255Y-133.706
X108.255Y-203.556
X108.28Y-213.72
X108.28Y-223.98
X108.306Y-146.152
X108.712Y-118.4
X109.474Y-139.09
X110.109Y-112.9
X110.388Y-134.823
X110.388Y-141.224
X110.541Y-160.376
X110.592Y-81.788
X110.738Y-185.82
X110.744Y-60.071
X110.744Y-156.515
X110.744Y-166.98
X111.811Y-182.22
X111.9Y-118.427
X112.166Y-164.389
X112.3Y-116.068
X112.611Y-168.084
X112.674Y-171.755
X113.03Y-54.61
X113.233Y-190.906
X113.284Y-188.417
X113.328Y-178.2
X114.173Y-52.451
X115.087Y-120.287
X115.8Y-48.69
X117.348Y-91.821
X117.401Y-52.921
X117.9Y-144.839
X118.237Y-66.929
X118.262Y-123.393
X118.262Y-180.696
X118.287Y-160.4
X118.313Y-140.106
X118.313Y-190.906
X118.313Y-194.92
X118.358Y-183.28
X118.364Y-54.712
X118.364Y-58.928
X118.364Y-72.898
X118.364Y-162.916
X118.415Y-61.265
X120.62Y-118.37
X120.65Y-124.816
X120.98Y-79.197
X121.006Y-170.584
X122.225Y-201.066
X122.377Y-150.216
X122.682Y-112.9
X123.317Y-224.0
X123.38Y-216.242
X123.444Y-142.545
X123.444Y-160.477
X123.444Y-165.557
X123.495Y-64.008
X123.546Y-175.666
X123.546Y-183.337
X123.546Y-193.446
X123.596Y-71.476
X123.602Y-139.96
X123.647Y-130.048
X124.663Y-188.366
X124.765Y-53.696
X124.765Y-60.147
X125.019Y-74.016
X125.882Y-61.468
X125.882Y-168.199
X125.933Y-207.366
X125.933Y-212.598
X125.984Y-137.414
X125.984Y-144.84
X125.984Y-158.445
X126.035Y-149.708
X126.035Y-156.718
X126.1Y-116.089
X127.889Y-120.287
X128.46Y-208.737
X128.473Y-211.176
X128.575Y-48.666
X128.626Y-124.866
X128.626Y-147.9
X129.845Y-76.556
X129.845Y-170.584
X130.912Y-90.576
X130.962Y-178.206
X131.013Y-164.287
X131.056Y-161.739
X131.064Y-211.226
X131.115Y-53.696
X131.115Y-129.946
X131.115Y-151.232
X131.115Y-187.096
X132.182Y-124.816
X133.38Y-170.586
X133.477Y-118.4
X133.553Y-213.614
X133.6Y-144.828
X133.756Y-73.965
X135.788Y-171.755
X135.89Y-112.9
X136.08Y-207.352
X136.195Y-66.548
X136.195Y-168.046
X136.5Y-188.366
X137.312Y-169.164
X137.566Y-183.286
X137.566Y-201.066
X137.617Y-136.195
X137.617Y-155.397
X137.634Y-165.54
X137.922Y-70.358
X138.557Y-65.151
X138.599Y-157.785
X138.608Y-221.386
X138.735Y-129.845
X138.786Y-176.936
X138.786Y-185.877
X138.811Y-77.978
X139.04Y-126.289
X139.379Y-51.981
X140.005Y-147.879
X140.208Y-116.1
X140.97Y-79.248
X141.224Y-200.965
X141.4Y-174.3
X141.707Y-120.287
X141.783Y-211.226
X142.494Y-81.788
X142.632Y-95.504
X142.748Y-91.821
X143.662Y-184.506
X143.696Y-157.92
X143.713Y-208.737
X143.764Y-167.996
X143.771Y-160.47
X143.891Y-75.311
X143.993Y-118.4
X144.018Y-127.254
X144.018Y-137.516
X144.932Y-192.634
X145.136Y-82.906
X146.177Y-54.991
X146.177Y-66.421
X146.355Y-170.586
X146.406Y-224.0
X147.066Y-118.4
X147.521Y-190.807
X148.488Y-149.276
X148.59Y-48.666
X148.6Y-81.089
X148.946Y-93.32
X148.946Y-203.556
X148.946Y-218.694
X148.996Y-179.426
X149.098Y-154.026
X149.098Y-163.017
X149.25Y-129.946
X149.809Y-206.096
X149.809Y-213.614
X150.09Y-127.38
X150.101Y-82.999
X150.165Y-189.586
X151.333Y-208.534
X151.384Y-162.865
X151.384Y-168.046
X151.384Y-201.016
X151.435Y-74.016
X151.435Y-76.556
X151.435Y-179.324
X151.486Y-51.981
X151.486Y-132.436
X151.486Y-135.026
X151.536Y-137.516
X151.536Y-144.882
X151.594Y-152.85
X152.53Y-116.094
X152.603Y-189.586
X153.924Y-79.248
X153.975Y-124.816
X154.01Y-147.894
X154.01Y-198.491
X154.051Y-120.287
X155.084Y-97.02
X155.092Y-83.799
X155.245Y-190.856
X155.999Y-91.94
X156.007Y-155.296
X156.108Y-162.966
X156.362Y-216.256
X156.463Y-71.68
X156.463Y-76.554
X156.464Y-54.991
X156.464Y-207.315
X156.464Y-209.956
X156.515Y-166.726
X156.566Y-179.426
X157.226Y-81.089
X157.785Y-192.43
X158.75Y-170.584
X158.801Y-224.0
X159.055Y-53.696
X159.131Y-79.248
X159.766Y-118.4
X161.442Y-53.645
X161.442Y-217.373
X161.544Y-133.655
X161.544Y-168.046
X161.556Y-161.759
X161.591Y-211.07
X161.595Y-137.566
X161.595Y-147.9
X161.646Y-79.045
X161.646Y-190.856
X161.671Y-84.074
X162.611Y-48.666
X162.712Y-204.775
X163.322Y-156.413
X163.779Y-152.705
X163.982Y-67.92
X163.982Y-71.476
X164.059Y-211.049
X164.084Y-160.477
X164.084Y-189.586
X164.1Y-59.0
X164.1Y-61.5
X164.1Y-116.1
X164.44Y-137.566
X164.44Y-144.78
X166.421Y-147.879
X166.421Y-198.526
X166.6Y-51.2
X166.726Y-189.535
X166.9Y-120.287
X167.4Y-84.1
X167.4Y-92.304
X167.4Y-112.9
X168.808Y-160.376
X168.961Y-132.537
X169.164Y-77.673
X169.164Y-114.656
X169.178Y-99.3
X169.215Y-152.654
X169.215Y-157.836
X169.215Y-212.395
X169.374Y-137.56
X169.5Y-176.9
X169.621Y-103.124
X170.84Y-203.556
X171.602Y-170.536
X173.584Y-183.337
X174.244Y-132.232
X174.295Y-97.892
X174.346Y-62.6
X174.346Y-155.397
X174.44Y-165.55
X174.498Y-185.776
X174.498Y-187.401
X174.65Y-128.778
X175.209Y-184.252
X175.565Y-138.836
X175.616Y-160.477
X175.616Y-179.426
X175.717Y-134.976
X175.768Y-56.337
X175.768Y-157.937
X176.073Y-74.066
X176.073Y-79.096
X176.378Y-152.857
X176.479Y-163.119
X176.581Y-137.516
X176.733Y-129.946
X176.733Y-144.882
X176.784Y-167.996
X176.8Y-66.4
X176.835Y-111.557
X176.84Y-61.34
X178.003Y-176.886
X178.105Y-207.467
X178.308Y-221.4
X179.21Y-147.942
X179.324Y-103.276
X179.324Y-170.536
X179.476Y-54.458
X180.188Y-197.358
X180.746Y-124.816
X181.813Y-209.855
X181.87Y-152.699
X181.915Y-111.557
X181.915Y-155.346
X181.966Y-157.886
X182.016Y-166.776
X182.118Y-127.305
X182.753Y-56.134
X183.083Y-178.054
X183.236Y-160.477
X183.286Y-68.986
X183.286Y-81.686
X183.998Y-200.711
X184.0Y-51.2
X184.299Y-132.385
X184.302Y-157.886
X184.353Y-110.998
X184.353Y-190.957
X184.399Y-154.229
X184.455Y-65.081
X184.455Y-166.776
X184.556Y-71.476
X184.556Y-79.12
X184.56Y-103.222
X184.861Y-53.823
X185.623Y-178.105
X185.776Y-214.935
X185.899Y-96.796
X186.944Y-144.84
X188.062Y-221.4
X188.265Y-171.856
X188.8Y-51.2
X189.433Y-191.922
X189.433Y-202.235
X189.484Y-129.845
X189.484Y-163.017
X189.639Y-224.0
X190.5Y-225.298
X190.652Y-165.557
X190.703Y-179.578
X190.754Y-160.426
X190.856Y-127.305
X190.856Y-152.908
X190.856Y-157.886
X191.96Y-189.623
X192.02Y-176.932
X192.024Y-216.916
X192.126Y-144.84
X192.126Y-171.45
X192.2Y-118.4
X193.294Y-221.4
X194.42Y-147.92
X194.462Y-100.508
X194.564Y-118.4
X194.615Y-198.476
X194.615Y-217.78
X194.716Y-98.45
X194.716Y-116.078
X195.885Y-144.882
X195.936Y-208.737
X196.037Y-66.42
X197.002Y-200.711
X197.104Y-134.925
X197.231Y-225.349
X197.866Y-68.96
X198.171Y-210.109
X199.187Y-170.129
X199.593Y-131.115
X199.593Y-137.414
X199.796Y-118.4
X199.847Y-141.326
X200.05Y-200.711
X200.812Y-217.018
X200.914Y-138.786
X201.168Y-71.5
X201.168Y-175.616
X202.082Y-137.185
X202.133Y-210.109
X202.184Y-195.783
X202.286Y-127.356
X202.336Y-163.017
X203.26Y-198.517
X203.352Y-74.04
X203.421Y-217.691
X203.962Y-57.506
X203.962Y-174.295
X204.572Y-156.667
X204.724Y-178.105
X204.826Y-108.356
X204.826Y-141.122
X204.826Y-146.096
X204.902Y-224.0
X205.588Y-51.223
X205.588Y-99.39
X205.842Y-193.345
X205.994Y-132.334
X206.146Y-144.932
X207.213Y-142.596
X207.264Y-113.436
X207.264Y-147.523
X207.264Y-184.048
X207.264Y-189.484
X207.3Y-118.4
X207.361Y-194.274
X207.366Y-203.505
X207.374Y-178.3
X208.483Y-140.056
X208.686Y-107.696
X208.839Y-115.722
X209.093Y-51.223
X209.906Y-180.823
X209.906Y-188.468
X209.906Y-200.711
X209.956Y-142.545
X211.074Y-192.227
X211.226Y-132.334
X211.277Y-183.286
X211.48Y-93.015
X211.706Y-169.296
X211.734Y-170.84
X211.855Y-206.0
X212.344Y-141.122
X212.344Y-148.996
X212.598Y-138.735
X212.598Y-184.556
X213.411Y-213.716
X214.782Y-117.297
X214.808Y-144.882
X215.29Y-70.155
X216.205Y-142.545
X216.56Y-84.089
X217.221Y-103.2
X217.424Y-136.296
X217.475Y-160.325
X217.526Y-178.156
X217.526Y-204.876
X217.576Y-93.015
X217.627Y-129.997
X217.627Y-163.017
X217.627Y-168.148
X217.729Y-121.652
X217.729Y-127.356
X217.983Y-115.976
X218.453Y-107.061
X218.643Y-152.857
X218.745Y-183.388
X218.77Y-164.287
X219.253Y-109.576
X219.754Y-137.56
X219.812Y-208.737
X219.862Y-202.387
X219.896Y-175.76
X220.054Y-115.824
X220.066Y-99.466
X220.066Y-112.116
X220.116Y-189.586
X220.167Y-96.774
X220.167Y-161.442
X220.218Y-163.424
X220.472Y-123.431
X220.523Y-155.143
X220.972Y-196.08
X220.972Y-198.569
X221.132Y-185.928
X222.402Y-188.417
X222.42Y-119.347
X222.461Y-203.7
X222.555Y-155.143
X223.266Y-224.0
X223.622Y-87.935
X223.774Y-193.345
X223.825Y-152.756
X223.825Y-180.797
X224.231Y-89.306
X224.7Y-118.5
X224.848Y-139.998
X224.979Y-124.968
X225.146Y-142.697
X225.196Y-123.139
X225.196Y-161.696
X225.574Y-121.167
X225.755Y-51.223
X226.156Y-190.887
X226.2Y-198.437
X226.416Y-89.916
X226.416Y-93.218
X227.381Y-144.9
X227.432Y-195.986
X227.432Y-203.657
X227.584Y-161.595
X227.599Y-206.197
X227.686Y-155.143
X227.736Y-169.266
X228.346Y-99.339
X228.956Y-216.764
X229.362Y-51.223
X230.505Y-105.842
X231.572Y-144.907
X232.715Y-141.681
X232.715Y-160.274
X232.715Y-203.505
X232.76Y-155.042
X232.766Y-131.115
X232.766Y-194.564
X232.816Y-191.008
X232.893Y-187.63
X235.1Y-118.5
X235.128Y-224.0
X235.204Y-115.976
X235.255Y-157.836
X235.306Y-70.155
X235.306Y-90.106
X235.534Y-147.523
X236.474Y-184.455
X236.677Y-154.026
X237.287Y-209.981
X237.795Y-91.796
X237.795Y-94.386
X237.846Y-165.456
X237.846Y-201.066
X237.896Y-163.068
X238.082Y-186.129
X238.125Y-218.5
X238.963Y-213.716
X239.065Y-160.376
X239.166Y-176.835
X239.217Y-134.874
X239.217Y-149.149
X239.319Y-187.909
X239.522Y-224.0
X239.763Y-196.063
X240.132Y-90.373
X240.284Y-152.756
X240.436Y-157.886
X240.538Y-121.971
X241.325Y-221.4
X241.681Y-118.491
X241.684Y-144.937
X241.808Y-155.245
X242.773Y-147.5
X242.926Y-94.386
X243.992Y-144.882
X245.389Y-225.896
X245.466Y-98.146
X245.466Y-179.527
X245.466Y-194.818
X245.516Y-197.358
X245.542Y-218.5
X245.974Y-122.225
X246.126Y-51.223
X246.736Y-132.182
X246.736Y-224.0
X246.786Y-161.696
X246.837Y-135.026
X246.85Y-142.494
X246.888Y-150.419
X246.99Y-100.584
X247.65Y-138.887
X247.955Y-198.933
X247.955Y-218.5
X247.98Y-192.05
X249.174Y-175.565
X249.225Y-51.223
X249.225Y-178.156
X249.276Y-202.438
X249.428Y-115.926
X249.474Y-106.99
X249.479Y-99.416
X249.53Y-165.354
X250.114Y-218.719
X250.393Y-184.506
X250.488Y-190.9
X250.495Y-103.073
X250.495Y-173.228
X250.546Y-122.276
X250.546Y-159.207
X251.136Y-86.004
X251.282Y-95.656
X251.714Y-214.986
X251.993Y-108.255
X251.993Y-113.487
X252.0Y-118.5
X252.019Y-116.078
X252.882Y-201.016
X253.035Y-93.066
X253.035Y-144.9
X253.187Y-87.935
X253.999Y-119.889
X254.356Y-221.437
X254.457Y-147.5
X254.61Y-168.046
X255.27Y-172.86
X255.575Y-70.104
X256.134Y-144.9
X256.134Y-151.486
X256.143Y-165.7
X256.946Y-213.512
X257.048Y-117.214
X257.048Y-120.955
X257.073Y-220.091
X257.099Y-65.159
X257.454Y-91.897
X258.14Y-193.269
X258.166Y-98.247
X258.166Y-190.805
X258.244Y-208.76
X258.435Y-129.88
X258.47Y-113.64
X258.521Y-124.866
X258.674Y-140.056
X258.928Y-169.215
X259.131Y-106.985
X259.131Y-147.5
X259.385Y-175.514
X259.436Y-203.708
X259.74Y-120.955
X259.842Y-62.535
X260.706Y-123.292
X260.706Y-136.144
X260.807Y-206.146
X260.909Y-118.364
X261.061Y-198.425
X261.264Y-116.129
X261.417Y-51.223
X262.128Y-214.401
X262.382Y-84.201
X262.407Y-54.788
X262.825Y-191.237
X263.001Y-177.089
X263.017Y-224.561
X263.195Y-170.739
X263.22Y-118.44
X263.236Y-153.0
X263.347Y-150.012
X264.465Y-121.107
X264.465Y-184.455
X264.5Y-51.223
X264.516Y-173.076
X264.566Y-218.8
X264.77Y-62.535
X264.77Y-94.437
X265.354Y-192.786
X265.633Y-100.635
X265.836Y-160.274
X265.88Y-211.168
X265.887Y-97.993
X267.005Y-157.836
X267.056Y-183.286
X267.056Y-197.256
X267.081Y-166.929
X267.106Y-99.416
X267.183Y-222.443
X267.344Y-50.123
X267.564Y-141.427
X267.767Y-132.436
X267.856Y-189.509
X268.224Y-164.033
X268.224Y-170.688
X268.376Y-155.245
X268.42Y-213.57
X269.316Y-184.531
X269.443Y-180.658
X269.672Y-223.593
X270.815Y-140.056
X270.815Y-142.697
X270.815Y-165.456
X270.866Y-170.383
X271.983Y-183.286
X271.983Y-195.986
X273.253Y-171.755
X273.26Y-188.272
X273.406Y-152.705
X273.406Y-166.827
X273.533Y-183.312
X273.558Y-88.786
X274.625Y-156.413
X274.625Y-181.915
X274.676Y-93.218
X274.726Y-198.323
X274.726Y-204.901
X274.98Y-90.424
X275.641Y-183.312
X275.865Y-170.637
X275.865Y-175.666
X275.946Y-162.865
X275.946Y-189.484
X276.606Y-70.104
X277.063Y-134.976
X277.063Y-167.996
X277.149Y-127.34
X277.165Y-104.445
X277.165Y-137.516
X277.165Y-147.523
X277.241Y-202.641
X277.343Y-182.728
X277.794Y-112.499
X277.876Y-111.3
X278.282Y-170.637
X278.308Y-144.9
X278.333Y-77.799
X278.333Y-93.218
X278.333Y-189.382
X278.333Y-196.088
X278.435Y-97.942
X278.435Y-117.196
X278.486Y-162.662
X278.58Y-209.898
X279.502Y-137.77
X279.705Y-51.079
X279.705Y-54.864
X279.705Y-62.433
X279.705Y-75.259
X279.857Y-121.412
X279.959Y-93.066
X280.822Y-162.662
X281.026Y-99.416
X281.026Y-142.697
X281.076Y-129.946
X281.12Y-211.633
X281.12Y-213.672
X281.33Y-115.875
X282.119Y-136.371
X282.397Y-132.537
X283.007Y-68.84
X283.007Y-71.374
X283.558Y-213.672
X283.82Y-190.155
X283.881Y-218.248
X283.972Y-108.255
X284.702Y-168.383
X284.734Y-180.645
X284.886Y-162.776
X284.937Y-112.166
X285.547Y-147.5
X285.72Y-73.92
X285.902Y-55.651
X285.928Y-144.907
X285.96Y-184.55
X286.055Y-159.207
X288.239Y-185.776
X288.646Y-101.905
X288.646Y-131.42
X288.696Y-195.936
X288.696Y-204.826
X288.95Y-143.154
X288.976Y-140.056
X289.458Y-212.319
X289.916Y-104.496
X289.966Y-109.576
X290.017Y-122.326
X290.068Y-107.036
X290.271Y-112.116
X290.295Y-54.939
X290.576Y-220.421
X290.639Y-136.299
X290.639Y-141.453
X290.94Y-160.215
X291.077Y-206.139
X291.135Y-181.915
X291.135Y-209.855
X291.236Y-212.293
X291.948Y-144.9
X292.506Y-170.434
X292.506Y-184.506
X292.633Y-181.915
X292.659Y-49.75
X293.48Y-152.696
X293.573Y-90.322
X293.573Y-96.774
X293.58Y-183.407
X293.7Y-155.296
X293.776Y-122.326
X293.929Y-88.474
X294.945Y-195.885
X295.135Y-94.323
X295.859Y-215.24
X296.173Y-135.02
X296.173Y-139.998
X296.215Y-180.645
X296.266Y-113.386
X296.316Y-96.876
X296.316Y-125.984
X296.316Y-175.666
X296.774Y-70.053
X296.774Y-74.117
X296.774Y-81.534
X297.231Y-144.9
X297.383Y-209.855
X297.688Y-62.332
X297.688Y-79.045
X298.106Y-92.996
X298.106Y-99.396
X298.206Y-119.837
X298.501Y-204.775
X298.66Y-181.82
X298.704Y-155.245
X298.704Y-184.556
X298.755Y-71.425
X298.755Y-170.485
X298.8Y-147.518
X299.009Y-104.496
X299.568Y-218.643
X299.695Y-64.033
X299.771Y-56.2
X299.872Y-190.839
X300.406Y-119.837
X301.092Y-156.413
X301.092Y-162.712
X301.142Y-175.616
X301.279Y-201.0
X301.447Y-181.915
X303.225Y-97.003
X303.632Y-157.937
X303.733Y-180.645
X303.733Y-185.776
X303.835Y-110.744
X303.835Y-213.817
X303.886Y-162.712
X303.888Y-133.759
X303.936Y-99.365
X303.936Y-114.7
X303.936Y-128.626
X303.936Y-131.115
X303.987Y-207.467
X304.038Y-76.454
X304.038Y-86.131
X304.775Y-167.564
X304.8Y-217.4
X304.8Y-223.825
X305.079Y-183.414
X305.156Y-173.025
X305.206Y-96.977
X305.714Y-66.396
X306.28Y-187.039
X306.324Y-100.686
X306.324Y-105.816
X306.375Y-119.736
X306.375Y-159.207
X307.543Y-190.839
X307.619Y-173.38
X307.696Y-184.506
X308.458Y-208.686
X308.82Y-181.908
X308.82Y-198.78
X308.864Y-139.954
X308.915Y-104.445
X308.915Y-109.626
X308.966Y-112.065
X308.966Y-124.866
X309.016Y-214.935
X309.067Y-114.503
X309.067Y-117.348
X309.118Y-95.263
X309.524Y-88.061
X309.706Y-86.354
X309.88Y-212.395
X310.159Y-185.75
X310.159Y-118.542
X310.2Y-53.7
X310.337Y-174.244
X310.388Y-166.776
X311.36Y-183.293
X311.556Y-120.853
X311.556Y-167.945
X311.633Y-107.036
X311.861Y-71.272
X312.979Y-127.406
X313.334Y-59.411
X313.944Y-183.286
X314.046Y-185.928
X314.07Y-81.56
X314.096Y-199.847
X314.096Y-211.226
X314.198Y-142.456
X314.198Y-152.705
X314.35Y-96.977
X314.35Y-103.226
X314.35Y-109.423
X314.35Y-120.856
X314.503Y-66.347
X314.554Y-64.059
X315.214Y-127.254
X315.366Y-123.444
X315.57Y-150.114
X315.57Y-175.565
X315.62Y-168.25
X315.925Y-61.265
X316.44Y-184.309
X316.459Y-106.629
X316.484Y-119.736
X316.636Y-73.965
X316.636Y-159.004
X316.636Y-188.265
X316.687Y-137.516
X316.687Y-166.776
X316.687Y-173.025
X316.738Y-86.766
X317.043Y-99.517
X317.094Y-95.402
X317.805Y-132.334
X317.957Y-140.157
X317.957Y-175.666
X318.11Y-125.832
X318.821Y-133.007
X318.821Y-165.938
X319.024Y-184.455
X319.126Y-173.076
X319.176Y-189.382
X319.3Y-81.5
X319.38Y-114.452
X319.43Y-112.319
X319.43Y-117.145
X319.481Y-100.584
X319.684Y-104.496
X319.684Y-107.95
X320.294Y-96.876
X320.573Y-143.561
X321.615Y-199.441
X321.65Y-166.839
X321.666Y-76.403
X321.666Y-87.986
X321.666Y-144.882
X321.666Y-152.756
X321.691Y-147.625
X321.7Y-207.23
X321.716Y-156.413
X321.742Y-212.496
X321.869Y-113.233
X322.072Y-100.533
X322.072Y-104.496
X322.529Y-208.813
X322.936Y-123.393
X323.085Y-133.807
X324.155Y-164.795
X324.2Y-179.471
X324.206Y-154.076
X324.22Y-76.418
X324.307Y-87.986
X324.46Y-96.876
X324.46Y-112.065
X324.841Y-206.273
X325.526Y-165.862
X325.882Y-127.254
X325.933Y-95.707
X326.771Y-148.819
X326.771Y-205.41
X326.796Y-73.965
X326.796Y-185.928
X327.66Y-152.806
X327.762Y-66.347
X327.812Y-178.206
X327.914Y-180.696
X327.965Y-188.366
X327.965Y-203.556
X328.27Y-124.816
X328.422Y-131.013
X328.676Y-141.3
X328.679Y-140.043
X328.993Y-215.748
X329.387Y-129.896
X329.387Y-132.182
X329.387Y-137.516
X329.387Y-185.725
X330.451Y-102.108
X330.451Y-120.791
X330.505Y-191.618
X330.962Y-127.356
X331.622Y-153.619
X331.673Y-194.412
X331.765Y-155.346
X331.8Y-99.4
X331.826Y-75.286
X332.0Y-132.16
X332.0Y-138.477
X332.74Y-62.509
X333.096Y-195.986
X333.197Y-102.006
X333.197Y-139.37
X334.34Y-126.022
X334.39Y-96.9
X334.416Y-131.013
X334.467Y-128.676
X334.588Y-88.005
X335.14Y-198.425
X335.191Y-145.313
X335.534Y-193.24
X335.89Y-100.635
X336.144Y-197.307
X336.398Y-78.029
X337.185Y-108.991
X337.566Y-67.107
X338.214Y-77.927
X338.277Y-99.771
X338.277Y-196.875
X338.328Y-87.833
X338.328Y-95.453
X338.557Y-86.131
X339.0Y-76.6
X339.039Y-123.241
X339.446Y-91.796
X339.8Y-85.3
X340.683Y-89.274
X340.741Y-153.594
X340.749Y-84.151
X340.792Y-158.14
X341.986Y-100.635
X341.986Y-114.503
X342.012Y-107.011
X342.1Y-96.9
X346.3Y-71.6
X347.5Y-80.3
X348.751Y-78.292
X348.8Y-74.1
X348.8Y-76.6
X349.25Y-51.181
X349.25Y-61.316
X349.551Y-85.344
X349.6Y-82.9
X349.733Y-205.638
T2
X308.206Y-144.896
X308.606Y-149.896
X309.0Y-147.7
X310.4Y-144.9
X311.6Y-86.36
X319.1Y-199.873
T3
X301.4Y-56.2
X307.34Y-171.094
X319.1Y-216.3
X321.7Y-170.3
T4
X61.1Y-148.0
X61.417Y-163.22
X61.417Y-173.38
X63.6Y-183.4
X63.906Y-163.22
X63.906Y-173.38
X63.997Y-125.781
X66.4Y-111.1
X66.4Y-116.1
X66.8Y-156.7
X67.7Y-190.34
X67.7Y-200.5
X68.9Y-163.24
X68.9Y-173.4
X68.997Y-125.781
X69.3Y-156.7
X71.26Y-148.0
X71.4Y-163.24
X71.4Y-173.4
X71.9Y-150.74
X71.9Y-160.9
X72.568Y-206.477
X73.76Y-183.4
X73.82Y-176.9
X74.081Y-111.0
X76.149Y-174.142
X76.483Y-160.833
X76.8Y-85.598
X77.256Y-114.427
X79.0Y-121.8
X79.081Y-111.0
X80.14Y-147.6
X81.483Y-160.833
X81.8Y-85.598
X82.256Y-114.427
X82.728Y-206.477
X82.8Y-218.2
X83.98Y-176.9
X84.0Y-121.8
X85.344Y-151.576
X85.344Y-156.576
X85.506Y-203.096
X86.0Y-205.62
X86.0Y-215.78
X86.309Y-174.142
X87.8Y-218.2
X88.3Y-111.0
X89.234Y-85.6
X90.3Y-147.6
X90.506Y-203.096
X92.3Y-208.7
X92.3Y-213.7
X92.8Y-152.8
X92.812Y-155.3
X92.812Y-157.8
X92.812Y-160.325
X93.044Y-121.818
X93.3Y-111.0
X94.234Y-85.6
X97.1Y-175.1
X98.044Y-121.818
X101.143Y-198.653
X101.6Y-111.0
X101.854Y-129.286
X101.854Y-139.446
X102.1Y-175.1
X102.148Y-85.6
X102.96Y-152.8
X102.972Y-155.3
X102.972Y-157.8
X102.972Y-160.325
X103.134Y-224.018
X103.291Y-79.2
X103.672Y-114.554
X105.473Y-196.153
X106.6Y-111.0
X106.67Y-220.482
X106.9Y-124.3
X107.148Y-85.6
X108.291Y-79.2
X108.672Y-114.554
X111.9Y-124.3
X112.3Y-111.0
X113.944Y-145.105
X113.944Y-147.605
X114.7Y-85.598
X117.3Y-111.0
X117.9Y-137.5
X117.9Y-142.5
X118.313Y-169.306
X118.313Y-174.306
X119.7Y-85.598
X126.1Y-111.0
X126.562Y-198.659
X127.421Y-85.598
X128.437Y-114.554
X130.892Y-196.159
X131.1Y-111.0
X132.421Y-85.598
X133.437Y-114.554
X138.847Y-224.475
X140.034Y-85.598
X140.1Y-111.0
X142.382Y-220.939
X143.713Y-145.328
X143.713Y-150.328
X143.815Y-140.705
X143.815Y-143.205
X145.034Y-85.598
X145.1Y-111.0
X152.6Y-111.0
X152.821Y-85.598
X154.726Y-114.554
X156.586Y-144.952
X157.6Y-111.0
X157.821Y-85.598
X157.836Y-147.117
X159.726Y-114.554
X161.6Y-94.3
X161.6Y-96.8
X161.6Y-99.3
X161.6Y-101.8
X161.6Y-104.3
X161.6Y-106.8
X161.6Y-109.3
X161.74Y-87.1
X161.8Y-89.7
X168.387Y-145.374
X169.418Y-181.813
X169.56Y-194.412
X169.637Y-147.539
X171.76Y-94.3
X171.76Y-96.8
X171.76Y-99.3
X171.76Y-101.8
X171.76Y-104.3
X171.76Y-106.8
X171.76Y-109.3
X171.8Y-211.1
X171.8Y-216.1
X171.9Y-87.1
X171.96Y-89.7
X173.838Y-203.505
X174.418Y-181.813
X174.56Y-194.412
X175.1Y-206.24
X175.1Y-216.4
X178.308Y-209.042
X178.308Y-219.202
X180.188Y-224.485
X183.723Y-220.95
X183.998Y-203.505
X184.135Y-145.12
X185.385Y-147.285
X187.035Y-53.137
X188.062Y-218.846
X192.035Y-53.137
X193.1Y-203.1
X197.0Y-198.5
X198.222Y-218.846
X199.6Y-124.9
X199.6Y-135.06
X199.8Y-104.72
X199.8Y-114.88
X199.898Y-174.295
X200.0Y-188.2
X200.0Y-193.2
X200.1Y-176.8
X200.1Y-181.8
X202.1Y-124.9
X202.1Y-135.06
X203.26Y-203.1
X204.7Y-124.9
X204.7Y-135.06
X204.9Y-216.7
X205.029Y-122.022
X207.16Y-198.5
X207.3Y-124.9
X207.3Y-135.06
X207.456Y-53.137
X209.9Y-216.7
X210.058Y-174.295
X212.456Y-53.137
X215.189Y-122.022
X218.3Y-215.0
X223.3Y-215.0
X227.726Y-53.137
X232.726Y-53.137
X235.3Y-180.74
X235.3Y-190.9
X235.52Y-149.4
X237.9Y-180.74
X237.9Y-190.9
X238.02Y-122.0
X238.6Y-127.5
X238.6Y-137.66
X239.5Y-142.331
X239.5Y-144.831
X240.5Y-180.74
X240.5Y-190.9
X243.0Y-180.74
X243.0Y-190.9
X245.067Y-152.875
X245.5Y-143.2
X248.056Y-53.137
X248.056Y-90.322
X248.18Y-122.0
X250.444Y-146.253
X250.5Y-143.2
X252.959Y-170.739
X252.959Y-180.899
X253.035Y-142.951
X253.056Y-53.137
X258.216Y-90.322
X260.604Y-146.253
X260.934Y-170.713
X260.934Y-180.873
X263.195Y-142.951
X265.419Y-53.137
X270.419Y-53.137
X273.416Y-222.443
X275.9Y-87.0
X276.951Y-218.907
X277.2Y-129.794
X277.2Y-139.954
X279.7Y-109.54
X279.7Y-119.7
X280.9Y-87.0
X293.79Y-201.0
X293.8Y-143.1
X296.4Y-87.0
X298.8Y-143.1
X301.4Y-87.0
X302.4Y-168.6
X303.95Y-201.0
X306.34Y-109.6
X306.34Y-112.1
X306.34Y-114.7
X306.34Y-117.196
X306.375Y-199.847
X306.4Y-202.4
X306.4Y-204.9
X306.4Y-212.4
X306.4Y-214.9
X307.4Y-168.6
X313.0Y-131.0
X313.0Y-136.0
X315.5Y-129.94
X315.5Y-140.1
X316.5Y-109.6
X316.5Y-112.1
X316.5Y-114.7
X316.5Y-117.196
X316.535Y-199.847
X316.56Y-202.4
X316.56Y-204.9
X316.56Y-212.4
X316.56Y-214.9
X324.44Y-148.8
X324.46Y-151.4
X326.6Y-130.84
X326.6Y-141.0
X326.8Y-154.44
X326.8Y-164.6
X332.0Y-123.82
X332.0Y-133.98
X332.0Y-136.24
X332.0Y-146.4
X334.6Y-148.8
X334.62Y-151.4
X336.4Y-71.24
X336.4Y-81.4
X339.6Y-162.22
X339.6Y-172.38
T5
X61.64Y-201.694
X62.92Y-200.394
X64.18Y-201.694
X80.664Y-182.238
X81.944Y-180.938
X83.204Y-182.238
T6
X60.9Y-180.705
X60.9Y-183.245
X61.1Y-186.02
X61.1Y-196.18
X61.105Y-121.6
X61.3Y-154.335
X61.3Y-159.415
X61.316Y-151.7
X61.78Y-89.46
X61.78Y-92.0
X61.78Y-94.54
X61.78Y-97.08
X61.78Y-99.62
X61.78Y-102.16
X61.78Y-104.7
X61.78Y-107.24
X61.9Y-112.905
X61.9Y-115.405
X63.605Y-121.6
X63.62Y-180.9
X63.62Y-186.1
X63.856Y-151.7
X65.126Y-137.363
X66.4Y-163.22
X66.4Y-173.38
X66.75Y-151.7
X69.25Y-151.7
X69.4Y-89.46
X69.4Y-92.0
X69.4Y-94.54
X69.4Y-97.08
X69.4Y-99.62
X69.4Y-102.16
X69.4Y-104.7
X69.4Y-107.24
X70.155Y-137.338
X70.6Y-120.305
X70.6Y-122.805
X70.6Y-192.6
X70.6Y-197.6
X73.1Y-62.5
X73.1Y-65.04
X73.1Y-67.58
X73.1Y-70.12
X73.1Y-72.66
X73.1Y-75.2
X73.1Y-77.74
X73.1Y-80.28
X73.1Y-82.82
X73.78Y-180.9
X73.78Y-186.1
X74.6Y-89.4
X74.6Y-91.94
X74.6Y-94.48
X74.6Y-97.02
X74.6Y-99.56
X74.6Y-102.1
X74.6Y-104.64
X74.6Y-107.18
X74.879Y-150.419
X74.879Y-152.959
X74.879Y-155.499
X74.879Y-158.039
X74.879Y-163.627
X74.879Y-166.167
X74.879Y-168.707
X74.879Y-171.247
X75.4Y-192.1
X77.58Y-124.7
X77.58Y-127.24
X77.58Y-129.78
X77.58Y-132.32
X77.58Y-134.86
X77.58Y-137.4
X77.58Y-139.94
X77.58Y-142.48
X77.9Y-192.1
X80.41Y-59.99
X80.41Y-67.61
X80.41Y-71.99
X80.41Y-79.61
X82.22Y-89.4
X82.22Y-91.94
X82.22Y-94.48
X82.22Y-97.02
X82.22Y-99.56
X82.22Y-102.1
X82.22Y-104.64
X82.22Y-107.18
X82.499Y-150.419
X82.499Y-152.959
X82.499Y-155.499
X82.499Y-158.039
X82.499Y-163.627
X82.499Y-166.167
X82.499Y-168.707
X82.499Y-171.247
X82.95Y-59.99
X82.95Y-67.61
X82.95Y-71.99
X82.95Y-79.61
X85.2Y-124.7
X85.2Y-127.24
X85.2Y-129.78
X85.2Y-132.32
X85.2Y-134.86
X85.2Y-137.4
X85.2Y-139.94
X85.2Y-142.48
X85.49Y-59.99
X85.49Y-67.61
X85.49Y-71.99
X85.49Y-79.61
X87.4Y-89.46
X87.4Y-92.0
X87.4Y-94.54
X87.4Y-97.08
X87.4Y-99.62
X87.4Y-102.16
X87.4Y-104.7
X87.4Y-107.24
X88.0Y-181.915
X88.03Y-59.99
X88.03Y-67.61
X88.03Y-71.99
X88.03Y-79.61
X90.39Y-124.71
X90.39Y-127.25
X90.39Y-129.79
X90.39Y-132.33
X90.39Y-134.87
X90.39Y-137.41
X90.39Y-139.95
X90.39Y-142.49
X90.5Y-181.915
X90.57Y-59.99
X90.57Y-67.61
X90.57Y-71.99
X90.57Y-79.61
X93.11Y-59.99
X93.11Y-67.61
X93.11Y-71.99
X93.11Y-79.61
X95.02Y-89.46
X95.02Y-92.0
X95.02Y-94.54
X95.02Y-97.08
X95.02Y-99.62
X95.02Y-102.16
X95.02Y-104.7
X95.02Y-107.24
X95.38Y-178.2
X95.38Y-180.74
X95.38Y-183.28
X95.38Y-185.82
X95.38Y-188.36
X95.38Y-190.9
X95.38Y-193.44
X95.38Y-203.56
X95.38Y-206.1
X95.38Y-208.64
X95.38Y-211.18
X95.38Y-213.72
X95.38Y-216.26
X95.38Y-218.8
X95.4Y-163.216
X95.4Y-168.296
X95.65Y-59.99
X95.65Y-67.61
X95.65Y-71.99
X95.65Y-79.61
X98.01Y-124.71
X98.01Y-127.25
X98.01Y-129.79
X98.01Y-132.33
X98.01Y-134.87
X98.01Y-137.41
X98.01Y-139.95
X98.01Y-142.49
X98.095Y-163.0
X98.095Y-168.08
X98.19Y-59.99
X98.19Y-67.61
X98.19Y-71.99
X98.19Y-79.61
X100.18Y-89.4
X100.18Y-91.94
X100.18Y-94.48
X100.18Y-97.02
X100.18Y-99.56
X100.18Y-102.1
X100.18Y-104.64
X100.18Y-107.18
X103.0Y-178.2
X103.0Y-180.74
X103.0Y-183.28
X103.0Y-185.82
X103.0Y-188.36
X103.0Y-190.9
X103.0Y-193.44
X103.0Y-203.56
X103.0Y-206.1
X103.0Y-208.64
X103.0Y-211.18
X103.0Y-213.72
X103.0Y-216.26
X103.0Y-218.8
X103.2Y-165.557
X103.2Y-170.637
X103.581Y-48.655
X103.581Y-51.155
X105.58Y-127.2
X105.58Y-129.74
X105.58Y-132.28
X105.58Y-134.82
X105.58Y-137.36
X105.58Y-139.9
X105.58Y-142.44
X107.8Y-89.4
X107.8Y-91.94
X107.8Y-94.48
X107.8Y-97.02
X107.8Y-99.56
X107.8Y-102.1
X107.8Y-104.64
X107.8Y-107.18
X108.0Y-175.66
X108.0Y-178.2
X108.0Y-180.74
X108.0Y-183.28
X108.0Y-185.82
X108.0Y-188.36
X108.0Y-190.9
X108.0Y-193.44
X108.001Y-152.78
X108.001Y-155.32
X108.001Y-157.86
X108.001Y-160.4
X108.001Y-162.94
X108.001Y-165.48
X108.001Y-168.02
X108.18Y-56.388
X108.18Y-58.928
X108.18Y-61.468
X108.18Y-64.008
X108.18Y-66.548
X108.18Y-69.088
X108.18Y-71.628
X110.68Y-203.6
X110.68Y-218.84
X113.0Y-89.4
X113.0Y-91.94
X113.0Y-94.48
X113.0Y-97.02
X113.0Y-99.56
X113.0Y-102.1
X113.0Y-104.64
X113.0Y-107.18
X113.2Y-127.2
X113.2Y-129.74
X113.2Y-132.28
X113.2Y-134.82
X113.2Y-137.36
X113.2Y-139.9
X113.2Y-142.44
X113.22Y-203.6
X113.22Y-218.84
X115.62Y-175.66
X115.62Y-178.2
X115.62Y-180.74
X115.62Y-183.28
X115.62Y-185.82
X115.62Y-188.36
X115.62Y-190.9
X115.62Y-193.44
X115.621Y-152.78
X115.621Y-155.32
X115.621Y-157.86
X115.621Y-160.4
X115.621Y-162.94
X115.621Y-165.48
X115.621Y-168.02
X115.76Y-203.6
X115.76Y-218.84
X115.8Y-56.388
X115.8Y-58.928
X115.8Y-61.468
X115.8Y-64.008
X115.8Y-66.548
X115.8Y-69.088
X115.8Y-71.628
X118.11Y-129.743
X118.11Y-132.334
X118.3Y-203.6
X118.3Y-218.84
X120.62Y-89.4
X120.62Y-91.94
X120.62Y-94.48
X120.62Y-97.02
X120.62Y-99.56
X120.62Y-102.1
X120.62Y-104.64
X120.62Y-107.18
X120.84Y-203.6
X120.84Y-218.84
X120.955Y-56.388
X120.955Y-58.928
X120.955Y-61.468
X120.955Y-64.008
X120.955Y-66.548
X120.955Y-69.088
X120.955Y-71.628
X120.98Y-152.84
X120.98Y-155.38
X120.98Y-157.92
X120.98Y-160.46
X120.98Y-163.0
X120.98Y-165.54
X120.98Y-168.08
X121.0Y-127.26
X121.0Y-129.8
X121.0Y-132.34
X121.0Y-134.88
X121.0Y-137.42
X121.0Y-139.96
X121.0Y-142.5
X121.0Y-175.66
X121.0Y-178.2
X121.0Y-180.74
X121.0Y-183.28
X121.0Y-185.82
X121.0Y-188.36
X121.0Y-190.9
X121.0Y-193.44
X123.38Y-203.6
X123.38Y-218.84
X125.552Y-79.249
X125.552Y-81.749
X125.8Y-89.46
X125.8Y-92.0
X125.8Y-94.54
X125.8Y-97.08
X125.8Y-99.62
X125.8Y-102.16
X125.8Y-104.7
X125.8Y-107.24
X125.92Y-203.6
X125.92Y-218.84
X128.46Y-203.6
X128.46Y-218.84
X128.575Y-56.388
X128.575Y-58.928
X128.575Y-61.468
X128.575Y-64.008
X128.575Y-66.548
X128.575Y-69.088
X128.575Y-71.628
X128.6Y-152.84
X128.6Y-155.38
X128.6Y-157.92
X128.6Y-160.46
X128.6Y-163.0
X128.6Y-165.54
X128.6Y-168.08
X128.62Y-127.26
X128.62Y-129.8
X128.62Y-132.34
X128.62Y-134.88
X128.62Y-137.42
X128.62Y-139.96
X128.62Y-142.5
X128.62Y-175.66
X128.62Y-178.2
X128.62Y-180.74
X128.62Y-183.28
X128.62Y-185.82
X128.62Y-188.36
X128.62Y-190.9
X128.62Y-193.44
X131.0Y-203.6
X131.0Y-218.84
X133.38Y-152.84
X133.38Y-155.38
X133.38Y-157.92
X133.38Y-160.46
X133.38Y-163.0
X133.38Y-165.54
X133.38Y-168.08
X133.42Y-89.46
X133.42Y-92.0
X133.42Y-94.54
X133.42Y-97.08
X133.42Y-99.62
X133.42Y-102.16
X133.42Y-104.7
X133.42Y-107.24
X133.5Y-66.1
X133.54Y-203.6
X133.54Y-218.84
X133.6Y-127.28
X133.6Y-129.82
X133.6Y-132.36
X133.6Y-134.9
X133.6Y-137.44
X133.6Y-139.98
X133.6Y-142.52
X133.6Y-178.2
X133.6Y-180.74
X133.6Y-183.28
X133.6Y-185.82
X133.6Y-188.36
X133.6Y-190.9
X133.6Y-193.44
X133.69Y-149.7
X133.706Y-58.928
X133.756Y-61.468
X133.756Y-76.606
X133.8Y-71.6
X136.08Y-203.6
X136.08Y-218.84
X137.7Y-74.1
X138.6Y-89.46
X138.6Y-92.0
X138.6Y-94.54
X138.6Y-97.08
X138.6Y-99.62
X138.6Y-102.16
X138.6Y-104.7
X138.6Y-107.24
X138.62Y-203.6
X138.62Y-218.84
X140.98Y-56.38
X140.98Y-58.92
X140.98Y-61.46
X140.98Y-64.0
X140.98Y-66.54
X140.98Y-69.08
X140.98Y-71.62
X140.98Y-74.16
X140.98Y-76.7
X141.0Y-152.84
X141.0Y-155.38
X141.0Y-157.92
X141.0Y-160.46
X141.0Y-163.0
X141.0Y-165.54
X141.0Y-168.08
X141.22Y-127.28
X141.22Y-129.82
X141.22Y-132.36
X141.22Y-134.9
X141.22Y-137.44
X141.22Y-139.98
X141.22Y-142.52
X141.22Y-178.2
X141.22Y-180.74
X141.22Y-183.28
X141.22Y-185.82
X141.22Y-188.36
X141.22Y-190.9
X141.22Y-193.44
X141.31Y-149.7
X146.22Y-89.46
X146.22Y-92.0
X146.22Y-94.54
X146.22Y-97.08
X146.22Y-99.62
X146.22Y-102.16
X146.22Y-104.7
X146.22Y-107.24
X146.32Y-174.2
X146.32Y-181.82
X146.32Y-186.8
X146.32Y-194.42
X146.39Y-127.38
X146.39Y-129.92
X146.39Y-132.46
X146.39Y-135.0
X146.39Y-137.54
X146.39Y-140.08
X146.39Y-142.62
X146.39Y-150.31
X146.39Y-152.85
X146.39Y-155.39
X146.39Y-157.93
X146.39Y-160.47
X146.39Y-163.01
X146.39Y-165.55
X146.39Y-168.09
X146.39Y-200.91
X146.39Y-203.45
X146.39Y-205.99
X146.39Y-208.53
X146.39Y-211.07
X146.39Y-213.61
X146.39Y-216.15
X146.39Y-218.69
X148.6Y-56.38
X148.6Y-58.92
X148.6Y-61.46
X148.6Y-64.0
X148.6Y-66.54
X148.6Y-69.08
X148.6Y-71.62
X148.6Y-74.16
X148.6Y-76.7
X148.86Y-174.2
X148.86Y-181.82
X148.86Y-186.8
X148.86Y-194.42
X151.4Y-89.4
X151.4Y-91.94
X151.4Y-94.48
X151.4Y-97.02
X151.4Y-99.56
X151.4Y-102.1
X151.4Y-104.64
X151.4Y-107.18
X151.4Y-174.2
X151.4Y-181.82
X151.4Y-186.8
X151.4Y-194.42
X153.79Y-56.44
X153.79Y-58.98
X153.79Y-61.52
X153.79Y-64.06
X153.79Y-66.6
X153.79Y-69.14
X153.79Y-71.68
X153.79Y-74.22
X153.79Y-76.76
X153.94Y-174.2
X153.94Y-181.82
X153.94Y-186.8
X153.94Y-194.42
X154.01Y-127.38
X154.01Y-129.92
X154.01Y-132.46
X154.01Y-135.0
X154.01Y-137.54
X154.01Y-140.08
X154.01Y-142.62
X154.01Y-150.31
X154.01Y-152.85
X154.01Y-155.39
X154.01Y-157.93
X154.01Y-160.47
X154.01Y-163.01
X154.01Y-165.55
X154.01Y-168.09
X154.01Y-200.91
X154.01Y-203.45
X154.01Y-205.99
X154.01Y-208.53
X154.01Y-211.07
X154.01Y-213.61
X154.01Y-216.15
X154.01Y-218.69
X156.48Y-174.2
X156.48Y-181.82
X156.48Y-186.8
X156.48Y-194.42
X158.78Y-150.26
X158.78Y-152.8
X158.78Y-155.34
X158.78Y-157.88
X158.78Y-160.42
X158.78Y-162.96
X158.78Y-165.5
X158.78Y-168.04
X158.79Y-200.91
X158.79Y-203.45
X158.79Y-205.99
X158.79Y-208.53
X158.79Y-211.07
X158.79Y-213.61
X158.79Y-216.15
X158.79Y-218.69
X158.99Y-127.38
X158.99Y-129.92
X158.99Y-132.46
X158.99Y-135.0
X158.99Y-137.54
X158.99Y-140.08
X158.99Y-142.62
X159.02Y-89.4
X159.02Y-91.94
X159.02Y-94.48
X159.02Y-97.02
X159.02Y-99.56
X159.02Y-102.1
X159.02Y-104.64
X159.02Y-107.18
X159.02Y-174.2
X159.02Y-181.82
X159.02Y-186.8
X159.02Y-194.42
X161.41Y-56.44
X161.41Y-58.98
X161.41Y-61.52
X161.41Y-64.06
X161.41Y-66.6
X161.41Y-69.14
X161.41Y-71.68
X161.41Y-74.22
X161.41Y-76.76
X161.56Y-174.2
X161.56Y-181.82
X161.56Y-186.8
X161.56Y-194.42
X164.1Y-174.2
X164.1Y-181.82
X164.1Y-186.8
X164.1Y-194.42
X166.4Y-150.26
X166.4Y-152.8
X166.4Y-155.34
X166.4Y-157.88
X166.4Y-160.42
X166.4Y-162.96
X166.4Y-165.5
X166.4Y-168.04
X166.41Y-200.91
X166.41Y-203.45
X166.41Y-205.99
X166.41Y-208.53
X166.41Y-211.07
X166.41Y-213.61
X166.41Y-216.15
X166.41Y-218.69
X166.61Y-127.38
X166.61Y-129.92
X166.61Y-132.46
X166.61Y-135.0
X166.61Y-137.54
X166.61Y-140.08
X166.61Y-142.62
X166.64Y-174.2
X166.64Y-181.82
X166.64Y-186.8
X166.64Y-194.42
X171.094Y-221.325
X171.094Y-223.825
X171.59Y-150.31
X171.59Y-152.85
X171.59Y-155.39
X171.59Y-157.93
X171.59Y-160.47
X171.59Y-163.01
X171.59Y-165.55
X171.59Y-168.09
X171.76Y-56.26
X171.76Y-58.8
X171.76Y-61.34
X171.76Y-63.88
X171.76Y-66.42
X171.76Y-68.96
X171.76Y-71.5
X171.76Y-74.04
X171.76Y-76.58
X171.76Y-79.12
X171.76Y-81.66
X171.76Y-84.2
X171.78Y-127.4
X171.78Y-129.94
X171.78Y-132.48
X171.78Y-135.02
X171.78Y-137.56
X171.78Y-140.1
X171.78Y-142.64
X172.491Y-172.568
X172.491Y-175.068
X174.4Y-92.9
X174.4Y-100.52
X174.46Y-106.79
X174.46Y-114.41
X176.94Y-92.9
X176.94Y-100.52
X177.0Y-106.79
X177.0Y-114.41
X178.791Y-118.886
X178.791Y-121.386
X179.21Y-150.31
X179.21Y-152.85
X179.21Y-155.39
X179.21Y-157.93
X179.21Y-160.47
X179.21Y-163.01
X179.21Y-165.55
X179.21Y-168.09
X179.26Y-186.8
X179.26Y-194.42
X179.32Y-174.2
X179.32Y-181.82
X179.4Y-127.4
X179.4Y-129.94
X179.4Y-132.48
X179.4Y-135.02
X179.4Y-137.56
X179.4Y-140.1
X179.4Y-142.64
X179.48Y-92.9
X179.48Y-100.52
X179.54Y-106.79
X179.54Y-114.41
X181.8Y-186.8
X181.8Y-194.42
X181.86Y-174.2
X181.86Y-181.82
X182.02Y-92.9
X182.02Y-100.52
X182.08Y-106.79
X182.08Y-114.41
X184.1Y-206.795
X184.1Y-209.295
X184.34Y-186.8
X184.34Y-194.42
X184.4Y-174.2
X184.4Y-181.82
X184.56Y-92.9
X184.56Y-100.52
X184.62Y-106.79
X184.62Y-114.41
X186.8Y-150.32
X186.8Y-152.86
X186.8Y-155.4
X186.8Y-157.94
X186.8Y-160.48
X186.8Y-163.02
X186.8Y-165.56
X186.8Y-168.1
X186.88Y-186.8
X186.88Y-194.42
X186.94Y-174.2
X186.94Y-181.82
X186.944Y-124.765
X186.944Y-127.305
X186.944Y-129.845
X186.944Y-132.385
X186.944Y-134.925
X186.944Y-137.465
X186.944Y-140.005
X186.944Y-142.545
X187.0Y-56.26
X187.0Y-58.8
X187.0Y-61.34
X187.0Y-63.88
X187.0Y-66.42
X187.0Y-68.96
X187.0Y-71.5
X187.0Y-74.04
X187.0Y-76.58
X187.0Y-79.12
X187.0Y-81.66
X187.0Y-84.2
X187.1Y-92.9
X187.1Y-100.52
X187.16Y-106.79
X187.16Y-114.41
X189.42Y-186.8
X189.42Y-194.42
X189.48Y-174.2
X189.48Y-181.82
X189.52Y-206.0
X189.52Y-213.62
X189.64Y-92.9
X189.64Y-100.52
X189.7Y-106.79
X189.7Y-114.41
X191.96Y-186.8
X191.96Y-194.42
X192.02Y-174.2
X192.02Y-181.82
X192.06Y-206.0
X192.06Y-213.62
X192.16Y-56.26
X192.16Y-58.8
X192.16Y-61.34
X192.16Y-63.88
X192.16Y-66.42
X192.16Y-68.96
X192.16Y-71.5
X192.16Y-74.04
X192.16Y-76.58
X192.16Y-79.12
X192.16Y-81.66
X192.16Y-84.2
X192.18Y-92.9
X192.18Y-100.52
X192.24Y-106.79
X192.24Y-114.41
X194.42Y-150.32
X194.42Y-152.86
X194.42Y-155.4
X194.42Y-157.94
X194.42Y-160.48
X194.42Y-163.02
X194.42Y-165.56
X194.42Y-168.1
X194.5Y-186.8
X194.5Y-194.42
X194.56Y-174.2
X194.56Y-181.82
X194.564Y-124.765
X194.564Y-127.305
X194.564Y-129.845
X194.564Y-132.385
X194.564Y-134.925
X194.564Y-137.465
X194.564Y-140.005
X194.564Y-142.545
X194.6Y-206.0
X194.6Y-213.62
X197.04Y-186.8
X197.04Y-194.42
X197.1Y-174.2
X197.1Y-181.82
X197.14Y-206.0
X197.14Y-213.62
X199.2Y-150.32
X199.2Y-152.86
X199.2Y-155.4
X199.2Y-157.94
X199.2Y-160.48
X199.2Y-163.02
X199.2Y-165.56
X199.2Y-168.1
X199.68Y-206.0
X199.68Y-213.62
X202.22Y-206.0
X202.22Y-213.62
X204.7Y-137.6
X204.76Y-206.0
X204.76Y-213.62
X205.5Y-203.1
X206.82Y-150.32
X206.82Y-152.86
X206.82Y-155.4
X206.82Y-157.94
X206.82Y-160.48
X206.82Y-163.02
X206.82Y-165.56
X206.82Y-168.1
X207.2Y-196.3
X207.3Y-137.6
X207.3Y-206.0
X207.3Y-213.62
X207.4Y-56.26
X207.4Y-58.8
X207.4Y-61.34
X207.4Y-63.88
X207.4Y-66.42
X207.4Y-68.96
X207.4Y-71.5
X207.4Y-74.04
X207.4Y-76.58
X207.4Y-79.12
X207.4Y-81.66
X207.4Y-84.2
X210.261Y-147.015
X210.551Y-221.495
X211.125Y-96.825
X211.125Y-99.365
X211.125Y-101.905
X211.125Y-104.445
X211.125Y-106.985
X211.125Y-109.525
X211.125Y-112.065
X211.125Y-114.605
X211.125Y-117.145
X211.801Y-223.66
X211.9Y-129.9
X212.029Y-145.247
X212.46Y-56.2
X212.46Y-58.74
X212.46Y-61.28
X212.46Y-63.82
X212.46Y-66.36
X212.46Y-68.9
X212.46Y-71.44
X212.46Y-73.98
X212.46Y-76.52
X212.46Y-79.06
X212.46Y-81.6
X212.46Y-84.14
X214.76Y-163.06
X214.76Y-165.6
X214.76Y-168.14
X214.76Y-170.68
X214.76Y-173.22
X214.76Y-175.76
X214.76Y-178.3
X214.76Y-180.84
X214.76Y-183.38
X214.76Y-185.92
X214.76Y-188.46
X214.76Y-191.0
X214.76Y-193.54
X214.76Y-196.08
X214.76Y-198.62
X214.76Y-201.16
X214.76Y-203.7
X214.76Y-206.24
X214.76Y-208.78
X214.76Y-211.32
X214.8Y-124.86
X214.8Y-127.4
X214.8Y-129.94
X214.8Y-132.48
X214.8Y-135.02
X214.8Y-137.56
X214.8Y-140.1
X214.9Y-149.6
X214.9Y-157.22
X214.935Y-96.876
X214.935Y-99.416
X214.935Y-101.956
X214.935Y-104.496
X214.935Y-107.036
X214.935Y-109.576
X214.935Y-112.116
X214.935Y-114.656
X217.44Y-149.6
X217.44Y-157.22
X219.98Y-149.6
X219.98Y-157.22
X220.777Y-142.799
X222.42Y-124.86
X222.42Y-127.4
X222.42Y-129.94
X222.42Y-132.48
X222.42Y-135.02
X222.42Y-137.56
X222.42Y-140.1
X222.52Y-149.6
X222.52Y-157.22
X222.555Y-96.876
X222.555Y-99.416
X222.555Y-101.956
X222.555Y-104.496
X222.555Y-107.036
X222.555Y-109.576
X222.555Y-112.116
X222.555Y-114.656
X225.06Y-149.6
X225.06Y-157.22
X226.2Y-217.7
X226.4Y-101.4
X227.38Y-124.8
X227.38Y-127.34
X227.38Y-129.88
X227.38Y-132.42
X227.38Y-134.96
X227.38Y-137.5
X227.38Y-140.04
X227.6Y-149.6
X227.6Y-157.22
X227.7Y-56.2
X227.7Y-58.74
X227.7Y-61.28
X227.7Y-63.82
X227.7Y-66.36
X227.7Y-68.9
X227.7Y-71.44
X227.7Y-73.98
X227.7Y-76.52
X227.7Y-79.06
X227.7Y-81.6
X227.7Y-84.14
X230.0Y-163.06
X230.0Y-165.6
X230.0Y-168.14
X230.0Y-170.68
X230.0Y-173.22
X230.0Y-175.76
X230.0Y-178.3
X230.0Y-180.84
X230.0Y-183.38
X230.0Y-185.92
X230.0Y-188.46
X230.0Y-191.0
X230.0Y-193.54
X230.0Y-196.08
X230.0Y-198.62
X230.0Y-201.16
X230.0Y-203.7
X230.0Y-206.24
X230.0Y-208.78
X230.0Y-211.32
X230.14Y-149.6
X230.14Y-157.22
X232.58Y-96.86
X232.58Y-99.4
X232.58Y-101.94
X232.58Y-104.48
X232.58Y-107.02
X232.58Y-109.56
X232.58Y-112.1
X232.58Y-114.64
X232.68Y-149.6
X232.68Y-157.22
X232.8Y-56.16
X232.8Y-58.7
X232.8Y-61.24
X232.8Y-63.78
X232.8Y-66.32
X232.8Y-68.86
X232.8Y-71.4
X232.8Y-73.94
X232.8Y-76.48
X232.8Y-79.02
X232.8Y-81.56
X232.8Y-84.1
X233.5Y-122.0
X235.0Y-124.8
X235.0Y-127.34
X235.0Y-129.88
X235.0Y-132.42
X235.0Y-134.96
X235.0Y-137.5
X235.0Y-140.04
X235.08Y-193.52
X235.08Y-196.06
X235.08Y-198.6
X235.08Y-201.14
X235.08Y-203.68
X235.08Y-206.22
X235.08Y-208.76
X235.08Y-211.3
X235.102Y-160.376
X235.102Y-162.916
X235.102Y-165.456
X235.102Y-167.996
X235.102Y-170.536
X235.102Y-173.076
X235.102Y-175.616
X235.102Y-178.156
X240.2Y-96.86
X240.2Y-99.4
X240.2Y-101.94
X240.2Y-104.48
X240.2Y-107.02
X240.2Y-109.56
X240.2Y-112.1
X240.2Y-114.64
X241.2Y-127.52
X241.2Y-137.68
X242.7Y-193.52
X242.7Y-196.06
X242.7Y-198.6
X242.7Y-201.14
X242.7Y-203.68
X242.7Y-206.22
X242.7Y-208.76
X242.7Y-211.3
X242.722Y-160.376
X242.722Y-162.916
X242.722Y-165.456
X242.722Y-167.996
X242.722Y-170.536
X242.722Y-173.076
X242.722Y-175.616
X242.722Y-178.156
X244.0Y-124.8
X244.0Y-127.34
X244.0Y-129.88
X244.0Y-132.42
X244.0Y-134.96
X244.0Y-137.5
X244.0Y-140.04
X245.516Y-206.146
X245.796Y-157.226
X247.98Y-188.19
X247.98Y-195.81
X248.04Y-56.16
X248.04Y-58.7
X248.04Y-61.24
X248.04Y-63.78
X248.04Y-66.32
X248.04Y-68.86
X248.04Y-71.4
X248.04Y-73.94
X248.04Y-76.48
X248.04Y-79.02
X248.04Y-81.56
X248.04Y-84.1
X248.296Y-157.226
X249.2Y-221.395
X249.2Y-223.895
X249.4Y-153.0
X249.479Y-92.964
X250.444Y-170.739
X250.444Y-180.899
X250.52Y-188.19
X250.52Y-195.81
X251.62Y-124.8
X251.62Y-127.34
X251.62Y-129.88
X251.62Y-132.42
X251.62Y-134.96
X251.62Y-137.5
X251.62Y-140.04
X252.98Y-150.46
X252.98Y-153.0
X252.98Y-155.54
X252.98Y-158.08
X252.98Y-160.62
X252.98Y-163.16
X252.98Y-165.7
X253.0Y-56.2
X253.0Y-58.74
X253.0Y-61.28
X253.0Y-63.82
X253.0Y-66.36
X253.0Y-68.9
X253.0Y-71.44
X253.0Y-73.98
X253.0Y-76.52
X253.0Y-79.06
X253.0Y-81.6
X253.0Y-84.14
X253.06Y-188.19
X253.06Y-195.81
X255.575Y-96.876
X255.575Y-99.416
X255.575Y-101.956
X255.575Y-104.496
X255.575Y-107.036
X255.575Y-109.576
X255.575Y-112.116
X255.575Y-114.656
X255.6Y-124.8
X255.6Y-127.34
X255.6Y-129.88
X255.6Y-132.42
X255.6Y-134.96
X255.6Y-137.5
X255.6Y-140.04
X255.6Y-188.19
X255.6Y-195.81
X255.72Y-200.8
X255.72Y-216.04
X256.946Y-173.902
X256.946Y-176.402
X258.14Y-188.19
X258.14Y-195.81
X258.26Y-200.8
X258.26Y-216.04
X260.6Y-150.46
X260.6Y-153.0
X260.6Y-155.54
X260.6Y-158.08
X260.6Y-160.62
X260.6Y-163.16
X260.6Y-165.7
X260.68Y-188.19
X260.68Y-195.81
X260.8Y-200.8
X260.8Y-216.04
X261.33Y-90.399
X263.195Y-96.876
X263.195Y-99.416
X263.195Y-101.956
X263.195Y-104.496
X263.195Y-107.036
X263.195Y-109.576
X263.195Y-112.116
X263.195Y-114.656
X263.22Y-124.8
X263.22Y-127.34
X263.22Y-129.88
X263.22Y-132.42
X263.22Y-134.96
X263.22Y-137.5
X263.22Y-140.04
X263.22Y-188.19
X263.22Y-195.81
X263.3Y-198.5
X263.34Y-200.8
X263.34Y-216.04
X263.83Y-90.399
X264.631Y-175.666
X265.88Y-200.8
X265.88Y-216.04
X266.141Y-111.96
X266.141Y-114.5
X266.802Y-118.444
X266.802Y-120.984
X267.131Y-175.666
X268.24Y-56.2
X268.24Y-58.74
X268.24Y-61.28
X268.24Y-63.82
X268.24Y-66.36
X268.24Y-68.9
X268.24Y-71.44
X268.24Y-73.98
X268.24Y-76.52
X268.24Y-79.06
X268.24Y-81.6
X268.24Y-84.14
X268.42Y-200.8
X268.42Y-216.04
X269.138Y-111.96
X269.138Y-114.5
X269.799Y-118.415
X269.799Y-120.955
X270.72Y-178.0
X270.72Y-193.24
X270.96Y-200.8
X270.96Y-216.04
X272.161Y-111.941
X272.161Y-114.481
X272.796Y-118.466
X272.796Y-121.006
X273.26Y-178.0
X273.26Y-193.24
X273.36Y-51.06
X273.36Y-53.6
X273.36Y-56.14
X273.36Y-58.68
X273.36Y-61.22
X273.36Y-63.76
X273.36Y-66.3
X273.36Y-68.84
X273.36Y-71.38
X273.36Y-73.92
X273.36Y-76.46
X273.36Y-79.0
X273.36Y-81.54
X273.36Y-84.08
X273.5Y-200.8
X273.5Y-216.04
X275.158Y-111.967
X275.158Y-114.507
X275.793Y-118.466
X275.793Y-121.006
X275.8Y-178.0
X275.8Y-193.24
X276.04Y-200.8
X276.04Y-216.04
X278.24Y-150.0
X278.24Y-165.24
X278.34Y-178.0
X278.34Y-193.24
X278.58Y-200.8
X278.58Y-216.04
X280.78Y-150.0
X280.78Y-165.24
X280.88Y-178.0
X280.88Y-193.24
X280.9Y-168.205
X280.9Y-170.745
X281.12Y-200.8
X281.12Y-216.04
X283.32Y-150.0
X283.32Y-165.24
X283.42Y-178.0
X283.42Y-193.24
X283.439Y-105.715
X283.66Y-200.8
X283.66Y-216.04
X285.86Y-150.0
X285.86Y-165.24
X285.96Y-178.0
X285.96Y-193.24
X285.98Y-124.8
X285.98Y-127.34
X285.98Y-129.88
X285.98Y-132.42
X285.98Y-134.96
X285.98Y-137.5
X285.98Y-140.04
X286.106Y-121.564
X286.2Y-200.8
X286.2Y-216.04
X288.392Y-168.199
X288.4Y-150.0
X288.4Y-165.24
X288.5Y-178.0
X288.5Y-193.24
X288.6Y-51.06
X288.6Y-53.6
X288.6Y-56.14
X288.6Y-58.68
X288.6Y-61.22
X288.6Y-63.76
X288.6Y-66.3
X288.6Y-68.84
X288.6Y-71.38
X288.6Y-73.92
X288.6Y-76.46
X288.6Y-79.0
X288.6Y-81.54
X288.6Y-84.08
X288.74Y-200.8
X288.74Y-216.04
X290.94Y-150.0
X290.94Y-165.24
X291.04Y-178.0
X291.04Y-193.24
X291.411Y-52.996
X293.48Y-150.0
X293.48Y-165.24
X293.58Y-178.0
X293.58Y-193.24
X293.6Y-124.8
X293.6Y-127.34
X293.6Y-129.88
X293.6Y-132.42
X293.6Y-134.96
X293.6Y-137.5
X293.6Y-140.04
X293.675Y-99.416
X293.675Y-101.956
X293.675Y-104.496
X293.675Y-107.036
X293.675Y-109.576
X293.675Y-112.116
X293.675Y-114.656
X293.675Y-117.196
X293.79Y-206.19
X293.79Y-208.73
X293.79Y-211.27
X293.79Y-213.81
X293.8Y-56.16
X293.8Y-58.7
X293.8Y-61.24
X293.8Y-63.78
X293.8Y-66.32
X293.8Y-68.86
X293.8Y-71.4
X293.8Y-73.94
X293.8Y-76.48
X293.8Y-79.02
X293.8Y-81.56
X293.8Y-84.1
X293.951Y-52.996
X296.02Y-150.0
X296.02Y-165.24
X296.12Y-178.0
X296.12Y-193.24
X298.56Y-150.0
X298.56Y-165.24
X298.6Y-168.2
X298.66Y-178.0
X298.66Y-193.24
X298.78Y-124.86
X298.78Y-127.4
X298.78Y-129.94
X298.78Y-132.48
X298.78Y-135.02
X298.78Y-137.56
X298.78Y-140.1
X301.1Y-150.0
X301.1Y-165.24
X301.2Y-178.0
X301.2Y-193.24
X301.295Y-99.416
X301.295Y-101.956
X301.295Y-104.496
X301.295Y-107.036
X301.295Y-109.576
X301.295Y-112.116
X301.295Y-114.656
X301.295Y-117.196
X301.41Y-206.19
X301.41Y-208.73
X301.41Y-211.27
X301.41Y-213.81
X303.64Y-150.0
X303.64Y-165.24
X303.74Y-178.0
X303.74Y-193.24
X306.18Y-150.0
X306.18Y-165.24
X306.28Y-178.0
X306.28Y-193.24
X306.4Y-124.86
X306.4Y-127.4
X306.4Y-129.94
X306.4Y-132.48
X306.4Y-135.02
X306.4Y-137.56
X306.4Y-140.1
X306.42Y-207.4
X306.42Y-209.9
X308.82Y-178.0
X308.82Y-193.24
X309.04Y-56.16
X309.04Y-58.7
X309.04Y-61.24
X309.04Y-63.78
X309.04Y-66.32
X309.04Y-68.86
X309.04Y-71.4
X309.04Y-73.94
X309.04Y-76.48
X309.04Y-79.02
X309.04Y-81.56
X309.04Y-84.1
X311.277Y-217.551
X311.36Y-178.0
X311.36Y-193.24
X311.59Y-147.58
X311.59Y-150.12
X311.59Y-152.66
X311.59Y-155.2
X311.59Y-157.74
X311.59Y-160.28
X311.59Y-162.82
X313.9Y-178.0
X313.9Y-193.24
X313.944Y-217.551
X314.06Y-71.28
X314.06Y-78.9
X314.16Y-83.98
X314.16Y-91.6
X316.44Y-178.0
X316.44Y-193.24
X316.58Y-207.4
X316.58Y-209.9
X316.6Y-71.28
X316.6Y-78.9
X316.7Y-83.98
X316.7Y-91.6
X318.98Y-178.0
X318.98Y-193.24
X319.14Y-71.28
X319.14Y-78.9
X319.21Y-147.58
X319.21Y-150.12
X319.21Y-152.66
X319.21Y-155.2
X319.21Y-157.74
X319.21Y-160.28
X319.21Y-162.82
X319.24Y-83.98
X319.24Y-91.6
X320.319Y-217.907
X320.6Y-132.6
X320.6Y-137.48
X321.68Y-71.28
X321.68Y-78.9
X321.7Y-173.2
X321.78Y-83.98
X321.78Y-91.6
X322.25Y-160.299
X322.275Y-162.814
X322.91Y-217.932
X324.2Y-173.2
X324.22Y-71.28
X324.22Y-78.9
X324.32Y-83.98
X324.32Y-91.6
X324.586Y-146.1
X325.476Y-217.932
X326.76Y-71.28
X326.76Y-78.9
X326.774Y-143.4
X326.86Y-83.98
X326.86Y-91.6
X327.126Y-146.1
X329.3Y-71.28
X329.3Y-78.9
X329.314Y-143.4
X329.4Y-83.98
X329.4Y-91.6
X330.302Y-65.989
X330.556Y-215.595
X331.84Y-71.28
X331.84Y-78.9
X331.94Y-83.98
X331.94Y-91.6
X332.802Y-65.989
X337.5Y-160.2
X341.9Y-58.82
X341.9Y-61.36
X341.9Y-63.9
X341.9Y-66.44
X341.9Y-68.98
X341.9Y-71.52
X341.9Y-74.06
X341.9Y-76.6
X341.9Y-79.14
X349.6Y-124.8
X349.6Y-127.3
X350.2Y-88.1
X350.2Y-94.3
X350.2Y-96.9
X350.2Y-99.4
T7
X62.6Y-53.7
X62.6Y-56.24
X62.6Y-58.78
X62.6Y-61.32
X62.6Y-63.86
X62.6Y-66.4
X62.6Y-68.94
X62.6Y-71.48
X62.6Y-74.02
X62.6Y-76.56
X62.6Y-79.1
X62.6Y-81.64
X62.6Y-84.21
X65.06Y-131.4
X65.06Y-133.94
X65.17Y-54.97
X65.17Y-57.51
X65.17Y-60.05
X65.17Y-62.59
X65.17Y-65.13
X65.17Y-67.67
X65.17Y-70.21
X65.17Y-72.75
X65.17Y-75.29
X65.17Y-77.83
X65.17Y-80.37
X65.17Y-82.91
X67.6Y-131.4
X67.6Y-133.94
X70.14Y-131.4
X70.14Y-133.94
X76.708Y-62.484
X76.708Y-65.024
X76.708Y-67.564
X76.708Y-70.104
X76.708Y-72.644
X76.708Y-75.184
X76.708Y-77.724
X76.708Y-80.264
X77.72Y-212.36
X77.72Y-214.9
X79.7Y-186.8
X79.76Y-200.0
X80.26Y-212.36
X80.26Y-214.9
X82.24Y-186.8
X82.3Y-200.0
X82.8Y-212.36
X82.8Y-214.9
X84.78Y-186.8
X84.84Y-200.0
X226.36Y-116.1
X226.4Y-104.58
X226.4Y-107.12
X226.4Y-109.66
X226.4Y-112.2
X228.9Y-116.1
X228.94Y-104.58
X228.94Y-107.12
X228.94Y-109.66
X228.94Y-112.2
X244.225Y-106.99
X244.225Y-109.53
X244.225Y-112.07
X244.225Y-114.61
X246.765Y-106.99
X246.765Y-109.53
X246.765Y-112.07
X246.765Y-114.61
X246.786Y-169.266
X246.786Y-171.806
X246.786Y-174.346
X246.786Y-176.886
X278.333Y-174.498
X280.873Y-174.498
X282.46Y-90.525
X282.46Y-93.065
X283.413Y-174.498
X285.0Y-90.525
X285.0Y-93.065
X285.953Y-174.498
X287.54Y-90.525
X287.54Y-93.065
X288.493Y-174.498
X291.033Y-174.498
X293.573Y-174.498
X302.86Y-90.525
X302.86Y-93.065
X305.4Y-90.525
X305.4Y-93.065
X307.94Y-90.525
X307.94Y-93.065
X309.0Y-221.36
X309.0Y-223.9
X311.54Y-221.36
X311.54Y-223.9
X314.08Y-221.36
X314.08Y-223.9
X316.62Y-221.36
X316.62Y-223.9
X319.16Y-221.36
X319.16Y-223.9
X321.7Y-221.36
X321.7Y-223.9
X324.24Y-221.36
X324.24Y-223.9
X326.78Y-221.36
X326.78Y-223.9
X327.762Y-209.169
X327.762Y-211.709
X329.32Y-221.36
X329.32Y-223.9
X330.302Y-209.169
X330.302Y-211.709
X331.77Y-160.29
X331.77Y-162.83
X331.77Y-165.37
X331.77Y-167.91
X331.77Y-170.45
X331.77Y-172.99
X331.77Y-175.53
X331.77Y-178.07
X331.77Y-180.61
X331.77Y-183.15
X331.77Y-185.69
X331.77Y-188.23
X331.86Y-221.36
X331.86Y-223.9
X332.842Y-209.169
X332.842Y-211.709
X334.34Y-158.99
X334.34Y-161.56
X334.34Y-164.1
X334.34Y-166.64
X334.34Y-169.18
X334.34Y-171.72
X334.34Y-174.26
X334.34Y-176.8
X334.34Y-179.34
X334.34Y-181.88
X334.34Y-184.42
X334.34Y-186.96
X334.34Y-189.5
X334.4Y-221.36
X334.4Y-223.9
X336.94Y-221.36
X336.94Y-223.9
X339.48Y-221.36
X339.48Y-223.9
X342.02Y-221.36
X342.02Y-223.9
X344.56Y-221.36
X344.56Y-223.9
X344.96Y-82.9
X344.96Y-85.44
X344.96Y-87.98
X344.96Y-90.52
X344.96Y-93.06
X344.96Y-95.6
X344.96Y-98.14
X344.96Y-100.68
X344.96Y-103.22
X344.96Y-105.76
X344.96Y-108.3
X344.96Y-110.84
X344.96Y-113.38
X344.96Y-115.92
X344.96Y-118.46
X344.96Y-121.0
X347.1Y-221.36
X347.1Y-223.9
X347.5Y-82.9
X347.5Y-85.44
X347.5Y-87.98
X347.5Y-90.52
X347.5Y-93.06
X347.5Y-95.6
X347.5Y-98.14
X347.5Y-100.68
X347.5Y-103.22
X347.5Y-105.76
X347.5Y-108.3
X347.5Y-110.84
X347.5Y-113.38
X347.5Y-115.92
X347.5Y-118.46
X347.5Y-121.0
T8
X319.1Y-57.84
X321.6Y-47.84
X321.6Y-60.34
X324.1Y-47.84
X326.6Y-57.84
X329.1Y-47.84
X331.6Y-47.84
X331.6Y-60.34
X334.1Y-57.84
M30
