%TF.GenerationSoftware,KiCad,Pcbnew,10.0.4*%
%TF.CreationDate,2026-08-18T20:37:05+02:00*%
%TF.ProjectId,Meritum_PGW,4d657269-7475-46d5-9f50-47572e6b6963,rev?*%
%TF.SameCoordinates,Original*%
%TF.FileFunction,Soldermask,Top*%
%TF.FilePolarity,Negative*%
%FSLAX46Y46*%
G04 Gerber Fmt 4.6, Leading zero omitted, Abs format (unit mm)*
G04 Created by KiCad (PCBNEW 10.0.4) date 2026-08-18 20:37:05*
%MOMM*%
%LPD*%
G01*
G04 APERTURE LIST*
G04 Aperture macros list*
%AMRoundRect*
0 Rectangle with rounded corners*
0 $1 Rounding radius*
0 $2 $3 $4 $5 $6 $7 $8 $9 X,Y pos of 4 corners*
0 Add a 4 corners polygon primitive as box body*
4,1,4,$2,$3,$4,$5,$6,$7,$8,$9,$2,$3,0*
0 Add four circle primitives for the rounded corners*
1,1,$1+$1,$2,$3*
1,1,$1+$1,$4,$5*
1,1,$1+$1,$6,$7*
1,1,$1+$1,$8,$9*
0 Add four rect primitives between the rounded corners*
20,1,$1+$1,$2,$3,$4,$5,0*
20,1,$1+$1,$4,$5,$6,$7,0*
20,1,$1+$1,$6,$7,$8,$9,0*
20,1,$1+$1,$8,$9,$2,$3,0*%
G04 Aperture macros list end*
%ADD10C,1.650000*%
%ADD11RoundRect,0.250000X-0.950000X-0.550000X0.950000X-0.550000X0.950000X0.550000X-0.950000X0.550000X0*%
%ADD12O,2.400000X1.600000*%
%ADD13C,1.524000*%
%ADD14C,1.600000*%
%ADD15R,1.700000X1.700000*%
%ADD16C,1.700000*%
%ADD17RoundRect,0.250000X-0.550000X0.550000X-0.550000X-0.550000X0.550000X-0.550000X0.550000X0.550000X0*%
%ADD18RoundRect,0.250000X-0.550000X-0.550000X0.550000X-0.550000X0.550000X0.550000X-0.550000X0.550000X0*%
%ADD19RoundRect,0.250000X-0.550000X0.950000X-0.550000X-0.950000X0.550000X-0.950000X0.550000X0.950000X0*%
%ADD20O,1.600000X2.400000*%
%ADD21O,2.200000X1.600000*%
%ADD22R,7.500000X1.600000*%
%ADD23C,3.200000*%
%ADD24RoundRect,0.250000X0.550000X0.550000X-0.550000X0.550000X-0.550000X-0.550000X0.550000X-0.550000X0*%
%ADD25C,1.500000*%
%ADD26RoundRect,0.250000X0.550000X-0.550000X0.550000X0.550000X-0.550000X0.550000X-0.550000X-0.550000X0*%
%ADD27RoundRect,0.250000X0.000000X-0.777817X0.777817X0.000000X0.000000X0.777817X-0.777817X0.000000X0*%
%ADD28R,1.600000X1.600000*%
%ADD29C,2.400000*%
%ADD30R,2.100000X2.100000*%
%ADD31C,2.100000*%
%ADD32C,1.400000*%
%ADD33RoundRect,0.250000X-0.751314X0.201314X-0.201314X-0.751314X0.751314X-0.201314X0.201314X0.751314X0*%
%ADD34RoundRect,0.250000X-0.850000X-0.550000X0.850000X-0.550000X0.850000X0.550000X-0.850000X0.550000X0*%
%ADD35C,1.200000*%
%ADD36R,1.300000X1.300000*%
%ADD37C,1.300000*%
G04 APERTURE END LIST*
D10*
%TO.C,T12*%
X204700000Y-137600000D03*
%TD*%
D11*
%TO.C,U12*%
X273360000Y-51060000D03*
D12*
X273360000Y-53600000D03*
X273360000Y-56140000D03*
X273360000Y-58680000D03*
X273360000Y-61220000D03*
X273360000Y-63760000D03*
X273360000Y-66300000D03*
X273360000Y-68840000D03*
X273360000Y-71380000D03*
X273360000Y-73920000D03*
X273360000Y-76460000D03*
X273360000Y-79000000D03*
X273360000Y-81540000D03*
X273360000Y-84080000D03*
X288600000Y-84080000D03*
X288600000Y-81540000D03*
X288600000Y-79000000D03*
X288600000Y-76460000D03*
X288600000Y-73920000D03*
X288600000Y-71380000D03*
X288600000Y-68840000D03*
X288600000Y-66300000D03*
X288600000Y-63760000D03*
X288600000Y-61220000D03*
X288600000Y-58680000D03*
X288600000Y-56140000D03*
X288600000Y-53600000D03*
X288600000Y-51060000D03*
%TD*%
D13*
%TO.C,C65*%
X169559600Y-194411600D03*
X174559600Y-194411600D03*
%TD*%
D14*
%TO.C,R56*%
X272796000Y-121005600D03*
X272796000Y-118465600D03*
%TD*%
D13*
%TO.C,C7*%
X66800000Y-156700000D03*
X69300000Y-156700000D03*
%TD*%
%TO.C,R45*%
X316500000Y-114700000D03*
X306340000Y-114700000D03*
%TD*%
D15*
%TO.C,J17*%
X65060000Y-133940000D03*
D16*
X65060000Y-131400000D03*
X67600000Y-133940000D03*
X67600000Y-131400000D03*
X70140000Y-133940000D03*
X70140000Y-131400000D03*
%TD*%
D11*
%TO.C,U5*%
X140980000Y-56380000D03*
D12*
X140980000Y-58920000D03*
X140980000Y-61460000D03*
X140980000Y-64000000D03*
X140980000Y-66540000D03*
X140980000Y-69080000D03*
X140980000Y-71620000D03*
X140980000Y-74160000D03*
X140980000Y-76700000D03*
X148600000Y-76700000D03*
X148600000Y-74160000D03*
X148600000Y-71620000D03*
X148600000Y-69080000D03*
X148600000Y-66540000D03*
X148600000Y-64000000D03*
X148600000Y-61460000D03*
X148600000Y-58920000D03*
X148600000Y-56380000D03*
%TD*%
D14*
%TO.C,R10*%
X63855600Y-151700000D03*
X61315600Y-151700000D03*
%TD*%
D17*
%TO.C,C82*%
X178790600Y-118886088D03*
D14*
X178790600Y-121386088D03*
%TD*%
D10*
%TO.C,Z33B1*%
X349600000Y-127300000D03*
%TD*%
%TO.C,Z36A1*%
X207200000Y-196300000D03*
%TD*%
D13*
%TO.C,C8*%
X76483200Y-160832800D03*
X81483200Y-160832800D03*
%TD*%
D11*
%TO.C,U78*%
X293790000Y-206190000D03*
D12*
X293790000Y-208730000D03*
X293790000Y-211270000D03*
X293790000Y-213810000D03*
X301410000Y-213810000D03*
X301410000Y-211270000D03*
X301410000Y-208730000D03*
X301410000Y-206190000D03*
%TD*%
D11*
%TO.C,U8*%
X192160000Y-56260000D03*
D12*
X192160000Y-58800000D03*
X192160000Y-61340000D03*
X192160000Y-63880000D03*
X192160000Y-66420000D03*
X192160000Y-68960000D03*
X192160000Y-71500000D03*
X192160000Y-74040000D03*
X192160000Y-76580000D03*
X192160000Y-79120000D03*
X192160000Y-81660000D03*
X192160000Y-84200000D03*
X207400000Y-84200000D03*
X207400000Y-81660000D03*
X207400000Y-79120000D03*
X207400000Y-76580000D03*
X207400000Y-74040000D03*
X207400000Y-71500000D03*
X207400000Y-68960000D03*
X207400000Y-66420000D03*
X207400000Y-63880000D03*
X207400000Y-61340000D03*
X207400000Y-58800000D03*
X207400000Y-56260000D03*
%TD*%
D15*
%TO.C,Z14*%
X244225000Y-106990000D03*
D16*
X246765000Y-106990000D03*
X244225000Y-109530000D03*
X246765000Y-109530000D03*
X244225000Y-112070000D03*
X246765000Y-112070000D03*
X244225000Y-114610000D03*
X246765000Y-114610000D03*
%TD*%
D13*
%TO.C,R15*%
X71400000Y-173400000D03*
X71400000Y-163240000D03*
%TD*%
%TO.C,R34*%
X204700000Y-124900000D03*
X204700000Y-135060000D03*
%TD*%
D11*
%TO.C,U42*%
X255600000Y-124800000D03*
D12*
X255600000Y-127340000D03*
X255600000Y-129880000D03*
X255600000Y-132420000D03*
X255600000Y-134960000D03*
X255600000Y-137500000D03*
X255600000Y-140040000D03*
X263220000Y-140040000D03*
X263220000Y-137500000D03*
X263220000Y-134960000D03*
X263220000Y-132420000D03*
X263220000Y-129880000D03*
X263220000Y-127340000D03*
X263220000Y-124800000D03*
%TD*%
D13*
%TO.C,C66*%
X126562137Y-198658800D03*
X130892264Y-196158800D03*
%TD*%
%TO.C,C36*%
X152600000Y-111000000D03*
X157600000Y-111000000D03*
%TD*%
D18*
%TO.C,C72*%
X321700000Y-173200000D03*
D14*
X324200000Y-173200000D03*
%TD*%
%TO.C,C19*%
X70600000Y-197600000D03*
X70600000Y-192600000D03*
%TD*%
D13*
%TO.C,C1*%
X81800000Y-85598000D03*
X76800000Y-85598000D03*
%TD*%
%TO.C,R1*%
X183997600Y-203504800D03*
X173837600Y-203504800D03*
%TD*%
D11*
%TO.C,U76*%
X235080000Y-193520000D03*
D12*
X235080000Y-196060000D03*
X235080000Y-198600000D03*
X235080000Y-201140000D03*
X235080000Y-203680000D03*
X235080000Y-206220000D03*
X235080000Y-208760000D03*
X235080000Y-211300000D03*
X242700000Y-211300000D03*
X242700000Y-208760000D03*
X242700000Y-206220000D03*
X242700000Y-203680000D03*
X242700000Y-201140000D03*
X242700000Y-198600000D03*
X242700000Y-196060000D03*
X242700000Y-193520000D03*
%TD*%
D15*
%TO.C,J8*%
X309000000Y-223900000D03*
D16*
X309000000Y-221360000D03*
X311540000Y-223900000D03*
X311540000Y-221360000D03*
X314080000Y-223900000D03*
X314080000Y-221360000D03*
X316620000Y-223900000D03*
X316620000Y-221360000D03*
X319160000Y-223900000D03*
X319160000Y-221360000D03*
X321700000Y-223900000D03*
X321700000Y-221360000D03*
X324240000Y-223900000D03*
X324240000Y-221360000D03*
X326780000Y-223900000D03*
X326780000Y-221360000D03*
X329320000Y-223900000D03*
X329320000Y-221360000D03*
X331860000Y-223900000D03*
X331860000Y-221360000D03*
X334400000Y-223900000D03*
X334400000Y-221360000D03*
X336940000Y-223900000D03*
X336940000Y-221360000D03*
X339480000Y-223900000D03*
X339480000Y-221360000D03*
X342020000Y-223900000D03*
X342020000Y-221360000D03*
X344560000Y-223900000D03*
X344560000Y-221360000D03*
X347100000Y-223900000D03*
X347100000Y-221360000D03*
%TD*%
D15*
%TO.C,J2*%
X62600000Y-53700000D03*
D16*
X62600000Y-56240000D03*
X62600000Y-58780000D03*
X62600000Y-61320000D03*
X62600000Y-63860000D03*
X62600000Y-66400000D03*
X62600000Y-68940000D03*
X62600000Y-71480000D03*
X62600000Y-74020000D03*
X62600000Y-76560000D03*
X62600000Y-79100000D03*
X62600000Y-81640000D03*
X62600000Y-84210000D03*
X65170000Y-54970000D03*
X65170000Y-57510000D03*
X65170000Y-60050000D03*
X65170000Y-62590000D03*
X65170000Y-65130000D03*
X65170000Y-67670000D03*
X65170000Y-70210000D03*
X65170000Y-72750000D03*
X65170000Y-75290000D03*
X65170000Y-77830000D03*
X65170000Y-80370000D03*
X65170000Y-82910000D03*
%TD*%
D18*
%TO.C,D5*%
X326774315Y-143400000D03*
D14*
X329314315Y-143400000D03*
%TD*%
D11*
%TO.C,U23*%
X151400000Y-89400000D03*
D12*
X151400000Y-91940000D03*
X151400000Y-94480000D03*
X151400000Y-97020000D03*
X151400000Y-99560000D03*
X151400000Y-102100000D03*
X151400000Y-104640000D03*
X151400000Y-107180000D03*
X159020000Y-107180000D03*
X159020000Y-104640000D03*
X159020000Y-102100000D03*
X159020000Y-99560000D03*
X159020000Y-97020000D03*
X159020000Y-94480000D03*
X159020000Y-91940000D03*
X159020000Y-89400000D03*
%TD*%
D18*
%TO.C,D6*%
X306420000Y-209900000D03*
D14*
X316580000Y-209900000D03*
%TD*%
D13*
%TO.C,R205*%
X63600000Y-183400000D03*
X73760000Y-183400000D03*
%TD*%
%TO.C,R8*%
X101854000Y-129286000D03*
X101854000Y-139446000D03*
%TD*%
D10*
%TO.C,T9*%
X220776800Y-142798800D03*
%TD*%
D11*
%TO.C,U7*%
X171760000Y-56260000D03*
D12*
X171760000Y-58800000D03*
X171760000Y-61340000D03*
X171760000Y-63880000D03*
X171760000Y-66420000D03*
X171760000Y-68960000D03*
X171760000Y-71500000D03*
X171760000Y-74040000D03*
X171760000Y-76580000D03*
X171760000Y-79120000D03*
X171760000Y-81660000D03*
X171760000Y-84200000D03*
X187000000Y-84200000D03*
X187000000Y-81660000D03*
X187000000Y-79120000D03*
X187000000Y-76580000D03*
X187000000Y-74040000D03*
X187000000Y-71500000D03*
X187000000Y-68960000D03*
X187000000Y-66420000D03*
X187000000Y-63880000D03*
X187000000Y-61340000D03*
X187000000Y-58800000D03*
X187000000Y-56260000D03*
%TD*%
D17*
%TO.C,D2*%
X241200000Y-127520000D03*
D14*
X241200000Y-137680000D03*
%TD*%
D19*
%TO.C,U72*%
X138620000Y-203600000D03*
D20*
X136080000Y-203600000D03*
X133540000Y-203600000D03*
X131000000Y-203600000D03*
X128460000Y-203600000D03*
X125920000Y-203600000D03*
X123380000Y-203600000D03*
X120840000Y-203600000D03*
X118300000Y-203600000D03*
X115760000Y-203600000D03*
X113220000Y-203600000D03*
X110680000Y-203600000D03*
X110680000Y-218840000D03*
X113220000Y-218840000D03*
X115760000Y-218840000D03*
X118300000Y-218840000D03*
X120840000Y-218840000D03*
X123380000Y-218840000D03*
X125920000Y-218840000D03*
X128460000Y-218840000D03*
X131000000Y-218840000D03*
X133540000Y-218840000D03*
X136080000Y-218840000D03*
X138620000Y-218840000D03*
%TD*%
D13*
%TO.C,R44*%
X316500000Y-117195600D03*
X306340000Y-117195600D03*
%TD*%
D11*
%TO.C,U53*%
X186800000Y-150320000D03*
D12*
X186800000Y-152860000D03*
X186800000Y-155400000D03*
X186800000Y-157940000D03*
X186800000Y-160480000D03*
X186800000Y-163020000D03*
X186800000Y-165560000D03*
X186800000Y-168100000D03*
X194420000Y-168100000D03*
X194420000Y-165560000D03*
X194420000Y-163020000D03*
X194420000Y-160480000D03*
X194420000Y-157940000D03*
X194420000Y-155400000D03*
X194420000Y-152860000D03*
X194420000Y-150320000D03*
%TD*%
D13*
%TO.C,C69*%
X183723134Y-220949666D03*
X180187600Y-224485200D03*
%TD*%
D11*
%TO.C,U41*%
X244000000Y-124800000D03*
D21*
X244000000Y-127340000D03*
D12*
X244000000Y-129880000D03*
X244000000Y-132420000D03*
X244000000Y-134960000D03*
X244000000Y-137500000D03*
X244000000Y-140040000D03*
X251620000Y-140040000D03*
X251620000Y-137500000D03*
X251620000Y-134960000D03*
X251620000Y-132420000D03*
X251620000Y-129880000D03*
X251620000Y-127340000D03*
X251620000Y-124800000D03*
%TD*%
D11*
%TO.C,U3*%
X108180000Y-56388000D03*
D12*
X108180000Y-58928000D03*
X108180000Y-61468000D03*
X108180000Y-64008000D03*
X108180000Y-66548000D03*
X108180000Y-69088000D03*
X108180000Y-71628000D03*
X115800000Y-71628000D03*
X115800000Y-69088000D03*
X115800000Y-66548000D03*
X115800000Y-64008000D03*
X115800000Y-61468000D03*
X115800000Y-58928000D03*
X115800000Y-56388000D03*
%TD*%
D11*
%TO.C,U35*%
X146390000Y-127380000D03*
D12*
X146390000Y-129920000D03*
X146390000Y-132460000D03*
X146390000Y-135000000D03*
X146390000Y-137540000D03*
D21*
X146390000Y-140080000D03*
D12*
X146390000Y-142620000D03*
X154010000Y-142620000D03*
X154010000Y-140080000D03*
X154010000Y-137540000D03*
X154010000Y-135000000D03*
X154010000Y-132460000D03*
X154010000Y-129920000D03*
X154010000Y-127380000D03*
%TD*%
D10*
%TO.C,J19*%
X70154800Y-137337800D03*
%TD*%
D13*
%TO.C,R221*%
X198221600Y-218846400D03*
X188061600Y-218846400D03*
%TD*%
D14*
%TO.C,R53*%
X269138400Y-114500000D03*
X269138400Y-111960000D03*
%TD*%
D13*
%TO.C,R65*%
X252958600Y-180898800D03*
X252958600Y-170738800D03*
%TD*%
D19*
%TO.C,U58B1*%
X306180000Y-150000000D03*
D20*
X303640000Y-150000000D03*
X301100000Y-150000000D03*
X298560000Y-150000000D03*
X296020000Y-150000000D03*
X293480000Y-150000000D03*
X290940000Y-150000000D03*
X288400000Y-150000000D03*
X285860000Y-150000000D03*
X283320000Y-150000000D03*
X280780000Y-150000000D03*
X278240000Y-150000000D03*
X278240000Y-165240000D03*
X280780000Y-165240000D03*
X283320000Y-165240000D03*
X285860000Y-165240000D03*
X288400000Y-165240000D03*
X290940000Y-165240000D03*
X293480000Y-165240000D03*
X296020000Y-165240000D03*
X298560000Y-165240000D03*
X301100000Y-165240000D03*
X303640000Y-165240000D03*
X306180000Y-165240000D03*
%TD*%
D13*
%TO.C,C11*%
X250500000Y-143200000D03*
X245500000Y-143200000D03*
%TD*%
D11*
%TO.C,U59*%
X311590000Y-147580000D03*
D12*
X311590000Y-150120000D03*
X311590000Y-152660000D03*
X311590000Y-155200000D03*
X311590000Y-157740000D03*
X311590000Y-160280000D03*
X311590000Y-162820000D03*
X319210000Y-162820000D03*
X319210000Y-160280000D03*
X319210000Y-157740000D03*
X319210000Y-155200000D03*
X319210000Y-152660000D03*
X319210000Y-150120000D03*
X319210000Y-147580000D03*
%TD*%
D17*
%TO.C,D9*%
X95400000Y-163215684D03*
D14*
X95400000Y-168295684D03*
%TD*%
D10*
%TO.C,T17*%
X325475600Y-217932000D03*
%TD*%
D11*
%TO.C,U48*%
X120980000Y-152840000D03*
D12*
X120980000Y-155380000D03*
X120980000Y-157920000D03*
X120980000Y-160460000D03*
X120980000Y-163000000D03*
X120980000Y-165540000D03*
X120980000Y-168080000D03*
X128600000Y-168080000D03*
X128600000Y-165540000D03*
X128600000Y-163000000D03*
X128600000Y-160460000D03*
X128600000Y-157920000D03*
X128600000Y-155380000D03*
X128600000Y-152840000D03*
%TD*%
D11*
%TO.C,U13*%
X293800000Y-56160000D03*
D12*
X293800000Y-58700000D03*
X293800000Y-61240000D03*
X293800000Y-63780000D03*
X293800000Y-66320000D03*
X293800000Y-68860000D03*
X293800000Y-71400000D03*
X293800000Y-73940000D03*
X293800000Y-76480000D03*
X293800000Y-79020000D03*
X293800000Y-81560000D03*
X293800000Y-84100000D03*
X309040000Y-84100000D03*
X309040000Y-81560000D03*
X309040000Y-79020000D03*
X309040000Y-76480000D03*
X309040000Y-73940000D03*
X309040000Y-71400000D03*
X309040000Y-68860000D03*
X309040000Y-66320000D03*
X309040000Y-63780000D03*
X309040000Y-61240000D03*
X309040000Y-58700000D03*
X309040000Y-56160000D03*
%TD*%
D22*
%TO.C,J3*%
X355600000Y-155300000D03*
X355600000Y-152760000D03*
X355600000Y-150220000D03*
X355600000Y-147680000D03*
X355600000Y-145140000D03*
X355600000Y-142600000D03*
X355600000Y-140060000D03*
X355600000Y-137520000D03*
X355600000Y-134980000D03*
X355600000Y-132440000D03*
X355600000Y-129900000D03*
X355600000Y-127360000D03*
X355600000Y-124820000D03*
X355600000Y-122280000D03*
X355600000Y-119740000D03*
X355600000Y-117200000D03*
X355600000Y-114660000D03*
X355600000Y-112120000D03*
X355600000Y-109580000D03*
X355600000Y-107040000D03*
X355600000Y-104500000D03*
X355600000Y-101960000D03*
X355600000Y-99420000D03*
X355600000Y-96880000D03*
X355600000Y-94340000D03*
X355600000Y-91800000D03*
X355600000Y-89260000D03*
X355600000Y-86720000D03*
X355600000Y-84180000D03*
X355600000Y-81640000D03*
X355600000Y-79100000D03*
X355600000Y-76560000D03*
X355600000Y-74020000D03*
X355600000Y-71480000D03*
X355600000Y-68940000D03*
X355600000Y-66400000D03*
X355600000Y-63860000D03*
X355600000Y-61320000D03*
X355600000Y-58780000D03*
X355600000Y-56240000D03*
X355600000Y-53700000D03*
X355600000Y-51160000D03*
X355600000Y-48620000D03*
%TD*%
D23*
%TO.C,REF\u002A\u002A*%
X94600000Y-48600000D03*
%TD*%
D13*
%TO.C,R13*%
X63906400Y-173380400D03*
X63906400Y-163220400D03*
%TD*%
%TO.C,R6*%
X102971600Y-160324800D03*
X92811600Y-160324800D03*
%TD*%
D17*
%TO.C,C85*%
X103581200Y-48655087D03*
D14*
X103581200Y-51155087D03*
%TD*%
D13*
%TO.C,R49*%
X248056400Y-90322400D03*
X258216400Y-90322400D03*
%TD*%
%TO.C,R14*%
X76149200Y-174142400D03*
X86309200Y-174142400D03*
%TD*%
D19*
%TO.C,U68*%
X197100000Y-174200000D03*
D20*
X194560000Y-174200000D03*
X192020000Y-174200000D03*
X189480000Y-174200000D03*
X186940000Y-174200000D03*
X184400000Y-174200000D03*
X181860000Y-174200000D03*
X179320000Y-174200000D03*
X179320000Y-181820000D03*
X181860000Y-181820000D03*
X184400000Y-181820000D03*
X186940000Y-181820000D03*
X189480000Y-181820000D03*
X192020000Y-181820000D03*
X194560000Y-181820000D03*
X197100000Y-181820000D03*
%TD*%
D10*
%TO.C,T10*%
X298600000Y-168200000D03*
%TD*%
D24*
%TO.C,C86*%
X332802112Y-65989200D03*
D14*
X330302112Y-65989200D03*
%TD*%
D18*
%TO.C,C15*%
X75400000Y-192100000D03*
D14*
X77900000Y-192100000D03*
%TD*%
D10*
%TO.C,J6*%
X118110000Y-132334000D03*
%TD*%
%TO.C,T3*%
X245516400Y-206146400D03*
%TD*%
D13*
%TO.C,R67*%
X332000000Y-146400000D03*
X332000000Y-136240000D03*
%TD*%
%TO.C,C38*%
X207456400Y-53136800D03*
X212456400Y-53136800D03*
%TD*%
%TO.C,R59*%
X197000000Y-198500000D03*
X207160000Y-198500000D03*
%TD*%
%TO.C,R5*%
X92811600Y-157800000D03*
X102971600Y-157800000D03*
%TD*%
%TO.C,C49*%
X185384600Y-147284931D03*
X184134600Y-145119867D03*
%TD*%
D25*
%TO.C,Y1*%
X320600000Y-132600000D03*
X320600000Y-137480000D03*
%TD*%
D13*
%TO.C,R101*%
X171900000Y-87100000D03*
X161740000Y-87100000D03*
%TD*%
D14*
%TO.C,C6*%
X66750000Y-151700000D03*
X69250000Y-151700000D03*
%TD*%
D24*
%TO.C,D10*%
X73780000Y-186100000D03*
D14*
X63620000Y-186100000D03*
%TD*%
D10*
%TO.C,Z37B1*%
X350200000Y-99400000D03*
%TD*%
D19*
%TO.C,U67*%
X197040000Y-186800000D03*
D20*
X194500000Y-186800000D03*
X191960000Y-186800000D03*
X189420000Y-186800000D03*
X186880000Y-186800000D03*
X184340000Y-186800000D03*
X181800000Y-186800000D03*
X179260000Y-186800000D03*
X179260000Y-194420000D03*
X181800000Y-194420000D03*
X184340000Y-194420000D03*
X186880000Y-194420000D03*
X189420000Y-194420000D03*
X191960000Y-194420000D03*
X194500000Y-194420000D03*
X197040000Y-194420000D03*
%TD*%
D19*
%TO.C,U64*%
X166640000Y-174200000D03*
D20*
X164100000Y-174200000D03*
X161560000Y-174200000D03*
X159020000Y-174200000D03*
X156480000Y-174200000D03*
X153940000Y-174200000D03*
X151400000Y-174200000D03*
X148860000Y-174200000D03*
X146320000Y-174200000D03*
X146320000Y-181820000D03*
X148860000Y-181820000D03*
X151400000Y-181820000D03*
X153940000Y-181820000D03*
X156480000Y-181820000D03*
X159020000Y-181820000D03*
X161560000Y-181820000D03*
X164100000Y-181820000D03*
X166640000Y-181820000D03*
%TD*%
D11*
%TO.C,U36*%
X158990000Y-127380000D03*
D12*
X158990000Y-129920000D03*
X158990000Y-132460000D03*
X158990000Y-135000000D03*
X158990000Y-137540000D03*
X158990000Y-140080000D03*
X158990000Y-142620000D03*
X166610000Y-142620000D03*
X166610000Y-140080000D03*
X166610000Y-137540000D03*
X166610000Y-135000000D03*
X166610000Y-132460000D03*
X166610000Y-129920000D03*
X166610000Y-127380000D03*
%TD*%
D26*
%TO.C,C81*%
X125552200Y-81748512D03*
D14*
X125552200Y-79248512D03*
%TD*%
D11*
%TO.C,U54*%
X199200000Y-150320000D03*
D12*
X199200000Y-152860000D03*
X199200000Y-155400000D03*
X199200000Y-157940000D03*
X199200000Y-160480000D03*
X199200000Y-163020000D03*
X199200000Y-165560000D03*
X199200000Y-168100000D03*
X206820000Y-168100000D03*
X206820000Y-165560000D03*
X206820000Y-163020000D03*
X206820000Y-160480000D03*
X206820000Y-157940000D03*
X206820000Y-155400000D03*
X206820000Y-152860000D03*
X206820000Y-150320000D03*
%TD*%
D13*
%TO.C,C10*%
X239500000Y-142330800D03*
X239500000Y-144830800D03*
%TD*%
D11*
%TO.C,U71*%
X95380000Y-203560000D03*
D12*
X95380000Y-206100000D03*
X95380000Y-208640000D03*
X95380000Y-211180000D03*
X95380000Y-213720000D03*
X95380000Y-216260000D03*
X95380000Y-218800000D03*
X103000000Y-218800000D03*
X103000000Y-216260000D03*
X103000000Y-213720000D03*
X103000000Y-211180000D03*
X103000000Y-208640000D03*
X103000000Y-206100000D03*
X103000000Y-203560000D03*
%TD*%
D13*
%TO.C,C37*%
X103291000Y-79200000D03*
X108291000Y-79200000D03*
%TD*%
D10*
%TO.C,Z28A1*%
X288391600Y-168198800D03*
%TD*%
D11*
%TO.C,U57*%
X252980000Y-150460000D03*
D12*
X252980000Y-153000000D03*
X252980000Y-155540000D03*
X252980000Y-158080000D03*
X252980000Y-160620000D03*
X252980000Y-163160000D03*
X252980000Y-165700000D03*
X260600000Y-165700000D03*
X260600000Y-163160000D03*
X260600000Y-160620000D03*
X260600000Y-158080000D03*
X260600000Y-155540000D03*
X260600000Y-153000000D03*
X260600000Y-150460000D03*
%TD*%
D19*
%TO.C,U75*%
X207300000Y-206000000D03*
D20*
X204760000Y-206000000D03*
X202220000Y-206000000D03*
X199680000Y-206000000D03*
X197140000Y-206000000D03*
X194600000Y-206000000D03*
X192060000Y-206000000D03*
X189520000Y-206000000D03*
X189520000Y-213620000D03*
X192060000Y-213620000D03*
X194600000Y-213620000D03*
X197140000Y-213620000D03*
X199680000Y-213620000D03*
X202220000Y-213620000D03*
X204760000Y-213620000D03*
X207300000Y-213620000D03*
%TD*%
D13*
%TO.C,R25*%
X161600000Y-94300000D03*
X171760000Y-94300000D03*
%TD*%
%TO.C,C75*%
X133437000Y-114554000D03*
X128437000Y-114554000D03*
%TD*%
D11*
%TO.C,U73*%
X146390000Y-200910000D03*
D12*
X146390000Y-203450000D03*
X146390000Y-205990000D03*
X146390000Y-208530000D03*
X146390000Y-211070000D03*
X146390000Y-213610000D03*
X146390000Y-216150000D03*
X146390000Y-218690000D03*
X154010000Y-218690000D03*
X154010000Y-216150000D03*
X154010000Y-213610000D03*
X154010000Y-211070000D03*
X154010000Y-208530000D03*
X154010000Y-205990000D03*
X154010000Y-203450000D03*
X154010000Y-200910000D03*
%TD*%
D11*
%TO.C,U20*%
X113000000Y-89400000D03*
D12*
X113000000Y-91940000D03*
X113000000Y-94480000D03*
X113000000Y-97020000D03*
X113000000Y-99560000D03*
X113000000Y-102100000D03*
X113000000Y-104640000D03*
X113000000Y-107180000D03*
X120620000Y-107180000D03*
X120620000Y-104640000D03*
X120620000Y-102100000D03*
X120620000Y-99560000D03*
X120620000Y-97020000D03*
X120620000Y-94480000D03*
X120620000Y-91940000D03*
X120620000Y-89400000D03*
%TD*%
D17*
%TO.C,D1*%
X66400000Y-163220000D03*
D14*
X66400000Y-173380000D03*
%TD*%
D13*
%TO.C,C32*%
X101600000Y-111000000D03*
X106600000Y-111000000D03*
%TD*%
%TO.C,C41*%
X265419200Y-53136800D03*
X270419200Y-53136800D03*
%TD*%
D11*
%TO.C,U16*%
X61780000Y-89460000D03*
D12*
X61780000Y-92000000D03*
X61780000Y-94540000D03*
X61780000Y-97080000D03*
X61780000Y-99620000D03*
X61780000Y-102160000D03*
X61780000Y-104700000D03*
X61780000Y-107240000D03*
X69400000Y-107240000D03*
X69400000Y-104700000D03*
X69400000Y-102160000D03*
X69400000Y-99620000D03*
X69400000Y-97080000D03*
X69400000Y-94540000D03*
X69400000Y-92000000D03*
X69400000Y-89460000D03*
%TD*%
D13*
%TO.C,C74*%
X108672000Y-114554000D03*
X103672000Y-114554000D03*
%TD*%
%TO.C,R37*%
X243000000Y-190900000D03*
X243000000Y-180740000D03*
%TD*%
D23*
%TO.C,REF\u002A\u002A*%
X301800000Y-48600000D03*
%TD*%
D13*
%TO.C,C60*%
X276951367Y-218907433D03*
X273415833Y-222442967D03*
%TD*%
%TO.C,R73*%
X306400000Y-212400000D03*
X316560000Y-212400000D03*
%TD*%
%TO.C,C21*%
X82800000Y-218200000D03*
X87800000Y-218200000D03*
%TD*%
D11*
%TO.C,U30*%
X77580000Y-124700000D03*
D12*
X77580000Y-127240000D03*
X77580000Y-129780000D03*
X77580000Y-132320000D03*
X77580000Y-134860000D03*
X77580000Y-137400000D03*
X77580000Y-139940000D03*
X77580000Y-142480000D03*
X85200000Y-142480000D03*
X85200000Y-139940000D03*
X85200000Y-137400000D03*
X85200000Y-134860000D03*
X85200000Y-132320000D03*
X85200000Y-129780000D03*
X85200000Y-127240000D03*
X85200000Y-124700000D03*
%TD*%
D10*
%TO.C,T6*%
X249478800Y-92964000D03*
%TD*%
D11*
%TO.C,U6*%
X153790000Y-56440000D03*
D12*
X153790000Y-58980000D03*
X153790000Y-61520000D03*
X153790000Y-64060000D03*
X153790000Y-66600000D03*
X153790000Y-69140000D03*
X153790000Y-71680000D03*
X153790000Y-74220000D03*
X153790000Y-76760000D03*
X161410000Y-76760000D03*
X161410000Y-74220000D03*
X161410000Y-71680000D03*
X161410000Y-69140000D03*
X161410000Y-66600000D03*
X161410000Y-64060000D03*
X161410000Y-61520000D03*
X161410000Y-58980000D03*
X161410000Y-56440000D03*
%TD*%
D14*
%TO.C,R51*%
X266801600Y-120983800D03*
X266801600Y-118443800D03*
%TD*%
%TO.C,R54*%
X269798800Y-120954800D03*
X269798800Y-118414800D03*
%TD*%
D11*
%TO.C,U9*%
X212460000Y-56200000D03*
D12*
X212460000Y-58740000D03*
X212460000Y-61280000D03*
X212460000Y-63820000D03*
X212460000Y-66360000D03*
X212460000Y-68900000D03*
X212460000Y-71440000D03*
X212460000Y-73980000D03*
X212460000Y-76520000D03*
X212460000Y-79060000D03*
X212460000Y-81600000D03*
X212460000Y-84140000D03*
X227700000Y-84140000D03*
X227700000Y-81600000D03*
X227700000Y-79060000D03*
X227700000Y-76520000D03*
X227700000Y-73980000D03*
X227700000Y-71440000D03*
X227700000Y-68900000D03*
X227700000Y-66360000D03*
X227700000Y-63820000D03*
X227700000Y-61280000D03*
X227700000Y-58740000D03*
X227700000Y-56200000D03*
%TD*%
D15*
%TO.C,JP7*%
X293573200Y-174498000D03*
D16*
X291033200Y-174498000D03*
X288493200Y-174498000D03*
X285953200Y-174498000D03*
X283413200Y-174498000D03*
X280873200Y-174498000D03*
X278333200Y-174498000D03*
%TD*%
D13*
%TO.C,C34*%
X126100000Y-111000000D03*
X131100000Y-111000000D03*
%TD*%
%TO.C,C44*%
X187034800Y-53136800D03*
X192034800Y-53136800D03*
%TD*%
D10*
%TO.C,Z34A2*%
X283438600Y-105714800D03*
%TD*%
D13*
%TO.C,R41*%
X238600000Y-127500000D03*
X238600000Y-137660000D03*
%TD*%
D10*
%TO.C,J35*%
X286105600Y-121564400D03*
%TD*%
D11*
%TO.C,U19*%
X100180000Y-89400000D03*
D12*
X100180000Y-91940000D03*
X100180000Y-94480000D03*
X100180000Y-97020000D03*
X100180000Y-99560000D03*
X100180000Y-102100000D03*
X100180000Y-104640000D03*
X100180000Y-107180000D03*
X107800000Y-107180000D03*
X107800000Y-104640000D03*
X107800000Y-102100000D03*
X107800000Y-99560000D03*
X107800000Y-97020000D03*
X107800000Y-94480000D03*
X107800000Y-91940000D03*
X107800000Y-89400000D03*
%TD*%
D18*
%TO.C,C83*%
X261329800Y-90398600D03*
D14*
X263829800Y-90398600D03*
%TD*%
D19*
%TO.C,U1*%
X98190000Y-59990000D03*
D20*
X95650000Y-59990000D03*
X93110000Y-59990000D03*
X90570000Y-59990000D03*
X88030000Y-59990000D03*
X85490000Y-59990000D03*
X82950000Y-59990000D03*
X80410000Y-59990000D03*
X80410000Y-67610000D03*
X82950000Y-67610000D03*
X85490000Y-67610000D03*
X88030000Y-67610000D03*
X90570000Y-67610000D03*
X93110000Y-67610000D03*
X95650000Y-67610000D03*
X98190000Y-67610000D03*
%TD*%
D13*
%TO.C,R12*%
X61417200Y-163220400D03*
X61417200Y-173380400D03*
%TD*%
D14*
%TO.C,R22*%
X293951200Y-52996400D03*
X291411200Y-52996400D03*
%TD*%
D11*
%TO.C,U37*%
X171780000Y-127400000D03*
D12*
X171780000Y-129940000D03*
X171780000Y-132480000D03*
X171780000Y-135020000D03*
X171780000Y-137560000D03*
X171780000Y-140100000D03*
X171780000Y-142640000D03*
X179400000Y-142640000D03*
X179400000Y-140100000D03*
X179400000Y-137560000D03*
X179400000Y-135020000D03*
X179400000Y-132480000D03*
X179400000Y-129940000D03*
X179400000Y-127400000D03*
%TD*%
D11*
%TO.C,U74*%
X158790000Y-200910000D03*
D12*
X158790000Y-203450000D03*
X158790000Y-205990000D03*
X158790000Y-208530000D03*
X158790000Y-211070000D03*
X158790000Y-213610000D03*
X158790000Y-216150000D03*
X158790000Y-218690000D03*
X166410000Y-218690000D03*
X166410000Y-216150000D03*
X166410000Y-213610000D03*
X166410000Y-211070000D03*
X166410000Y-208530000D03*
X166410000Y-205990000D03*
X166410000Y-203450000D03*
X166410000Y-200910000D03*
%TD*%
D13*
%TO.C,C35*%
X140100000Y-111000000D03*
X145100000Y-111000000D03*
%TD*%
%TO.C,R63*%
X260934200Y-180873400D03*
X260934200Y-170713400D03*
%TD*%
D27*
%TO.C,C79*%
X210261200Y-147015200D03*
D14*
X212028967Y-145247433D03*
%TD*%
D15*
%TO.C,J32*%
X79700000Y-186800000D03*
D16*
X82240000Y-186800000D03*
X84780000Y-186800000D03*
%TD*%
D13*
%TO.C,R33*%
X199600000Y-124900000D03*
X199600000Y-135060000D03*
%TD*%
D26*
%TO.C,D3*%
X250444000Y-180898800D03*
D14*
X250444000Y-170738800D03*
%TD*%
D10*
%TO.C,Z3*%
X133500000Y-66100000D03*
%TD*%
D15*
%TO.C,Z10*%
X226360000Y-116100000D03*
D16*
X228900000Y-116100000D03*
%TD*%
D13*
%TO.C,C43*%
X301400000Y-87000000D03*
X296400000Y-87000000D03*
%TD*%
D28*
%TO.C,RN2*%
X73100000Y-82820000D03*
D14*
X73100000Y-80280000D03*
X73100000Y-77740000D03*
X73100000Y-75200000D03*
X73100000Y-72660000D03*
X73100000Y-70120000D03*
X73100000Y-67580000D03*
X73100000Y-65040000D03*
X73100000Y-62500000D03*
%TD*%
D10*
%TO.C,T19*%
X330555600Y-215595200D03*
%TD*%
D13*
%TO.C,C76*%
X159726000Y-114554000D03*
X154726000Y-114554000D03*
%TD*%
D11*
%TO.C,U51*%
X158780000Y-150260000D03*
D12*
X158780000Y-152800000D03*
X158780000Y-155340000D03*
X158780000Y-157880000D03*
X158780000Y-160420000D03*
X158780000Y-162960000D03*
X158780000Y-165500000D03*
X158780000Y-168040000D03*
X166400000Y-168040000D03*
X166400000Y-165500000D03*
X166400000Y-162960000D03*
X166400000Y-160420000D03*
X166400000Y-157880000D03*
X166400000Y-155340000D03*
X166400000Y-152800000D03*
X166400000Y-150260000D03*
%TD*%
D13*
%TO.C,R209*%
X67700000Y-200500000D03*
X67700000Y-190340000D03*
%TD*%
D10*
%TO.C,J18*%
X65125600Y-137363200D03*
%TD*%
D13*
%TO.C,R79*%
X253034800Y-142951200D03*
X263194800Y-142951200D03*
%TD*%
%TO.C,C42*%
X280900000Y-87000000D03*
X275900000Y-87000000D03*
%TD*%
%TO.C,R35*%
X207300000Y-124900000D03*
X207300000Y-135060000D03*
%TD*%
%TO.C,R61*%
X332000000Y-133980000D03*
X332000000Y-123820000D03*
%TD*%
D19*
%TO.C,U69*%
X263220000Y-188190000D03*
D20*
X260680000Y-188190000D03*
X258140000Y-188190000D03*
X255600000Y-188190000D03*
X253060000Y-188190000D03*
X250520000Y-188190000D03*
X247980000Y-188190000D03*
X247980000Y-195810000D03*
X250520000Y-195810000D03*
X253060000Y-195810000D03*
X255600000Y-195810000D03*
X258140000Y-195810000D03*
X260680000Y-195810000D03*
X263220000Y-195810000D03*
%TD*%
D13*
%TO.C,C48*%
X157835600Y-147116800D03*
X156585600Y-144951736D03*
%TD*%
%TO.C,C26*%
X132421000Y-85598000D03*
X127421000Y-85598000D03*
%TD*%
D14*
%TO.C,R52*%
X275793200Y-121005600D03*
X275793200Y-118465600D03*
%TD*%
D13*
%TO.C,R100*%
X161800000Y-89700000D03*
X171960000Y-89700000D03*
%TD*%
%TO.C,C28*%
X107148000Y-85600000D03*
X102148000Y-85600000D03*
%TD*%
D11*
%TO.C,U52*%
X171590000Y-150310000D03*
D12*
X171590000Y-152850000D03*
X171590000Y-155390000D03*
X171590000Y-157930000D03*
X171590000Y-160470000D03*
X171590000Y-163010000D03*
X171590000Y-165550000D03*
X171590000Y-168090000D03*
X179210000Y-168090000D03*
X179210000Y-165550000D03*
X179210000Y-163010000D03*
X179210000Y-160470000D03*
X179210000Y-157930000D03*
X179210000Y-155390000D03*
X179210000Y-152850000D03*
X179210000Y-150310000D03*
%TD*%
D18*
%TO.C,D4*%
X324585686Y-146100000D03*
D14*
X327125686Y-146100000D03*
%TD*%
D13*
%TO.C,C23*%
X157821000Y-85598000D03*
X152821000Y-85598000D03*
%TD*%
D11*
%TO.C,U21*%
X125800000Y-89460000D03*
D12*
X125800000Y-92000000D03*
X125800000Y-94540000D03*
X125800000Y-97080000D03*
X125800000Y-99620000D03*
X125800000Y-102160000D03*
X125800000Y-104700000D03*
X125800000Y-107240000D03*
X133420000Y-107240000D03*
X133420000Y-104700000D03*
X133420000Y-102160000D03*
X133420000Y-99620000D03*
X133420000Y-97080000D03*
X133420000Y-94540000D03*
X133420000Y-92000000D03*
X133420000Y-89460000D03*
%TD*%
D13*
%TO.C,C29*%
X94234000Y-85600000D03*
X89234000Y-85600000D03*
%TD*%
%TO.C,R64*%
X339600000Y-172380000D03*
X339600000Y-162220000D03*
%TD*%
%TO.C,R47*%
X316500000Y-109600000D03*
X306340000Y-109600000D03*
%TD*%
%TO.C,R43*%
X248180000Y-122000000D03*
X238020000Y-122000000D03*
%TD*%
D11*
%TO.C,U56*%
X235102400Y-160375600D03*
D12*
X235102400Y-162915600D03*
X235102400Y-165455600D03*
X235102400Y-167995600D03*
X235102400Y-170535600D03*
X235102400Y-173075600D03*
X235102400Y-175615600D03*
X235102400Y-178155600D03*
X242722400Y-178155600D03*
X242722400Y-175615600D03*
X242722400Y-173075600D03*
X242722400Y-170535600D03*
X242722400Y-167995600D03*
X242722400Y-165455600D03*
X242722400Y-162915600D03*
X242722400Y-160375600D03*
%TD*%
D10*
%TO.C,T13*%
X207300000Y-137600000D03*
%TD*%
D13*
%TO.C,R222*%
X205028800Y-122021600D03*
X215188800Y-122021600D03*
%TD*%
D11*
%TO.C,U17*%
X74600000Y-89400000D03*
D12*
X74600000Y-91940000D03*
X74600000Y-94480000D03*
X74600000Y-97020000D03*
X74600000Y-99560000D03*
X74600000Y-102100000D03*
X74600000Y-104640000D03*
X74600000Y-107180000D03*
X82220000Y-107180000D03*
X82220000Y-104640000D03*
X82220000Y-102100000D03*
X82220000Y-99560000D03*
X82220000Y-97020000D03*
X82220000Y-94480000D03*
X82220000Y-91940000D03*
X82220000Y-89400000D03*
%TD*%
D13*
%TO.C,R11*%
X71900000Y-160900000D03*
X71900000Y-150740000D03*
%TD*%
D24*
%TO.C,D12*%
X73780000Y-180900000D03*
D14*
X63620000Y-180900000D03*
%TD*%
D13*
%TO.C,R77*%
X326600000Y-141000000D03*
X326600000Y-130840000D03*
%TD*%
D17*
%TO.C,C12*%
X256946400Y-173902488D03*
D14*
X256946400Y-176402488D03*
%TD*%
D24*
%TO.C,C53*%
X90500200Y-181914800D03*
D14*
X88000200Y-181914800D03*
%TD*%
D13*
%TO.C,R4*%
X102971600Y-155300000D03*
X92811600Y-155300000D03*
%TD*%
D18*
%TO.C,C13*%
X264631288Y-175666400D03*
D14*
X267131288Y-175666400D03*
%TD*%
D15*
%TO.C,J4*%
X334340000Y-189500000D03*
D16*
X334340000Y-186960000D03*
X334340000Y-184420000D03*
X334340000Y-181880000D03*
X334340000Y-179340000D03*
X334340000Y-176800000D03*
X334340000Y-174260000D03*
X334340000Y-171720000D03*
X334340000Y-169180000D03*
X334340000Y-166640000D03*
X334340000Y-164100000D03*
X334340000Y-161560000D03*
X334340000Y-158990000D03*
X331770000Y-188230000D03*
X331770000Y-185690000D03*
X331770000Y-183150000D03*
X331770000Y-180610000D03*
X331770000Y-178070000D03*
X331770000Y-175530000D03*
X331770000Y-172990000D03*
X331770000Y-170450000D03*
X331770000Y-167910000D03*
X331770000Y-165370000D03*
X331770000Y-162830000D03*
X331770000Y-160290000D03*
%TD*%
D13*
%TO.C,R72*%
X316560000Y-214900000D03*
X306400000Y-214900000D03*
%TD*%
%TO.C,R29*%
X161600000Y-109300000D03*
X171760000Y-109300000D03*
%TD*%
D15*
%TO.C,Z8*%
X226400000Y-104580000D03*
D16*
X228940000Y-104580000D03*
X226400000Y-107120000D03*
X228940000Y-107120000D03*
X226400000Y-109660000D03*
X228940000Y-109660000D03*
X226400000Y-112200000D03*
X228940000Y-112200000D03*
%TD*%
D14*
%TO.C,R110*%
X61300000Y-159415000D03*
X61300000Y-154335000D03*
%TD*%
D29*
%TO.C,J1*%
X334100000Y-52840000D03*
X319100000Y-52840000D03*
D30*
X319100000Y-57840000D03*
D31*
X326600000Y-57840000D03*
X334100000Y-57840000D03*
X321600000Y-60340000D03*
X331600000Y-60340000D03*
X331600000Y-47840000D03*
X329100000Y-47840000D03*
X324100000Y-47840000D03*
X321600000Y-47840000D03*
%TD*%
D10*
%TO.C,Z33A1*%
X205500000Y-203100000D03*
%TD*%
D19*
%TO.C,U15*%
X331940000Y-83980000D03*
D20*
X329400000Y-83980000D03*
X326860000Y-83980000D03*
X324320000Y-83980000D03*
X321780000Y-83980000D03*
X319240000Y-83980000D03*
X316700000Y-83980000D03*
X314160000Y-83980000D03*
X314160000Y-91600000D03*
X316700000Y-91600000D03*
X319240000Y-91600000D03*
X321780000Y-91600000D03*
X324320000Y-91600000D03*
X326860000Y-91600000D03*
X329400000Y-91600000D03*
X331940000Y-91600000D03*
%TD*%
D13*
%TO.C,R21*%
X334600000Y-148800000D03*
X324440000Y-148800000D03*
%TD*%
%TO.C,R42*%
X210058000Y-174294800D03*
X199898000Y-174294800D03*
%TD*%
%TO.C,R220*%
X178308000Y-209042000D03*
X178308000Y-219202000D03*
%TD*%
%TO.C,R30*%
X161600000Y-104300000D03*
X171760000Y-104300000D03*
%TD*%
D10*
%TO.C,T11*%
X263300000Y-198500000D03*
%TD*%
D13*
%TO.C,R16*%
X68900000Y-173400000D03*
X68900000Y-163240000D03*
%TD*%
%TO.C,R46*%
X316500000Y-112100000D03*
X306340000Y-112100000D03*
%TD*%
D32*
%TO.C,C3*%
X143713200Y-150328000D03*
X143713200Y-145328000D03*
%TD*%
%TO.C,T7*%
X233500000Y-122000000D03*
%TD*%
D10*
%TO.C,Z36B1*%
X350200000Y-88100000D03*
%TD*%
D11*
%TO.C,U22*%
X138600000Y-89460000D03*
D12*
X138600000Y-92000000D03*
X138600000Y-94540000D03*
X138600000Y-97080000D03*
X138600000Y-99620000D03*
X138600000Y-102160000D03*
X138600000Y-104700000D03*
X138600000Y-107240000D03*
X146220000Y-107240000D03*
X146220000Y-104700000D03*
X146220000Y-102160000D03*
X146220000Y-99620000D03*
X146220000Y-97080000D03*
X146220000Y-94540000D03*
X146220000Y-92000000D03*
X146220000Y-89460000D03*
%TD*%
D14*
%TO.C,R206*%
X60900000Y-183245000D03*
X60900000Y-180705000D03*
%TD*%
D11*
%TO.C,U11*%
X253000000Y-56200000D03*
D12*
X253000000Y-58740000D03*
X253000000Y-61280000D03*
X253000000Y-63820000D03*
X253000000Y-66360000D03*
X253000000Y-68900000D03*
X253000000Y-71440000D03*
X253000000Y-73980000D03*
X253000000Y-76520000D03*
X253000000Y-79060000D03*
X253000000Y-81600000D03*
X253000000Y-84140000D03*
X268240000Y-84140000D03*
X268240000Y-81600000D03*
X268240000Y-79060000D03*
X268240000Y-76520000D03*
X268240000Y-73980000D03*
X268240000Y-71440000D03*
X268240000Y-68900000D03*
X268240000Y-66360000D03*
X268240000Y-63820000D03*
X268240000Y-61280000D03*
X268240000Y-58740000D03*
X268240000Y-56200000D03*
%TD*%
D13*
%TO.C,R7*%
X102960000Y-152800000D03*
X92800000Y-152800000D03*
%TD*%
D28*
%TO.C,RN1*%
X211124800Y-117144800D03*
D14*
X211124800Y-114604800D03*
X211124800Y-112064800D03*
X211124800Y-109524800D03*
X211124800Y-106984800D03*
X211124800Y-104444800D03*
X211124800Y-101904800D03*
X211124800Y-99364800D03*
X211124800Y-96824800D03*
%TD*%
D13*
%TO.C,R36*%
X235300000Y-190900000D03*
X235300000Y-180740000D03*
%TD*%
%TO.C,R211*%
X86000000Y-215780000D03*
X86000000Y-205620000D03*
%TD*%
%TO.C,C78*%
X169636600Y-147538932D03*
X168386600Y-145373868D03*
%TD*%
D10*
%TO.C,T8*%
X211900000Y-129900000D03*
%TD*%
D13*
%TO.C,R9*%
X61100000Y-148000000D03*
X71260000Y-148000000D03*
%TD*%
D10*
%TO.C,T16*%
X320319400Y-217906600D03*
%TD*%
D11*
%TO.C,U18*%
X87400000Y-89460000D03*
D12*
X87400000Y-92000000D03*
X87400000Y-94540000D03*
X87400000Y-97080000D03*
X87400000Y-99620000D03*
X87400000Y-102160000D03*
X87400000Y-104700000D03*
X87400000Y-107240000D03*
X95020000Y-107240000D03*
X95020000Y-104700000D03*
X95020000Y-102160000D03*
X95020000Y-99620000D03*
X95020000Y-97080000D03*
X95020000Y-94540000D03*
X95020000Y-92000000D03*
X95020000Y-89460000D03*
%TD*%
D13*
%TO.C,C31*%
X88300000Y-111000000D03*
X93300000Y-111000000D03*
%TD*%
D11*
%TO.C,U28*%
X255574800Y-96875600D03*
D12*
X255574800Y-99415600D03*
X255574800Y-101955600D03*
X255574800Y-104495600D03*
X255574800Y-107035600D03*
X255574800Y-109575600D03*
X255574800Y-112115600D03*
X255574800Y-114655600D03*
X263194800Y-114655600D03*
X263194800Y-112115600D03*
X263194800Y-109575600D03*
X263194800Y-107035600D03*
X263194800Y-104495600D03*
X263194800Y-101955600D03*
X263194800Y-99415600D03*
X263194800Y-96875600D03*
%TD*%
D11*
%TO.C,U63*%
X133600000Y-178200000D03*
D12*
X133600000Y-180740000D03*
X133600000Y-183280000D03*
X133600000Y-185820000D03*
X133600000Y-188360000D03*
X133600000Y-190900000D03*
X133600000Y-193440000D03*
X141220000Y-193440000D03*
X141220000Y-190900000D03*
X141220000Y-188360000D03*
X141220000Y-185820000D03*
X141220000Y-183280000D03*
X141220000Y-180740000D03*
X141220000Y-178200000D03*
%TD*%
D19*
%TO.C,U24*%
X192180000Y-92900000D03*
D20*
X189640000Y-92900000D03*
X187100000Y-92900000D03*
X184560000Y-92900000D03*
X182020000Y-92900000D03*
X179480000Y-92900000D03*
X176940000Y-92900000D03*
X174400000Y-92900000D03*
X174400000Y-100520000D03*
X176940000Y-100520000D03*
X179480000Y-100520000D03*
X182020000Y-100520000D03*
X184560000Y-100520000D03*
X187100000Y-100520000D03*
X189640000Y-100520000D03*
X192180000Y-100520000D03*
%TD*%
D13*
%TO.C,C16*%
X313000000Y-136000000D03*
X313000000Y-131000000D03*
%TD*%
%TO.C,R83*%
X235520000Y-149400000D03*
X245067277Y-152874925D03*
%TD*%
%TO.C,C46*%
X111900000Y-124300000D03*
X106900000Y-124300000D03*
%TD*%
D15*
%TO.C,J5*%
X76708000Y-80264000D03*
D16*
X76708000Y-77724000D03*
X76708000Y-75184000D03*
X76708000Y-72644000D03*
X76708000Y-70104000D03*
X76708000Y-67564000D03*
X76708000Y-65024000D03*
X76708000Y-62484000D03*
%TD*%
D14*
%TO.C,R2*%
X133690000Y-149700000D03*
X141310000Y-149700000D03*
%TD*%
D13*
%TO.C,R18*%
X199800000Y-104720000D03*
X199800000Y-114880000D03*
%TD*%
D33*
%TO.C,C80*%
X210550600Y-221494822D03*
D14*
X211800600Y-223659886D03*
%TD*%
D10*
%TO.C,Z24B1*%
X322275200Y-162814000D03*
%TD*%
D15*
%TO.C,JP1*%
X246786400Y-176885600D03*
D16*
X246786400Y-174345600D03*
X246786400Y-171805600D03*
X246786400Y-169265600D03*
%TD*%
D14*
%TO.C,R50*%
X266141200Y-114500000D03*
X266141200Y-111960000D03*
%TD*%
D26*
%TO.C,C84*%
X172491400Y-175068113D03*
D14*
X172491400Y-172568113D03*
%TD*%
D11*
%TO.C,U39*%
X214800000Y-124860000D03*
D12*
X214800000Y-127400000D03*
X214800000Y-129940000D03*
X214800000Y-132480000D03*
X214800000Y-135020000D03*
X214800000Y-137560000D03*
X214800000Y-140100000D03*
X222420000Y-140100000D03*
X222420000Y-137560000D03*
X222420000Y-135020000D03*
X222420000Y-132480000D03*
X222420000Y-129940000D03*
X222420000Y-127400000D03*
X222420000Y-124860000D03*
%TD*%
D26*
%TO.C,C52*%
X70600000Y-122805112D03*
D14*
X70600000Y-120305112D03*
%TD*%
D15*
%TO.C,J33*%
X79760000Y-200000000D03*
D16*
X82300000Y-200000000D03*
X84840000Y-200000000D03*
%TD*%
D13*
%TO.C,C61*%
X101142800Y-198653400D03*
X105472927Y-196153400D03*
%TD*%
D10*
%TO.C,T14*%
X337500000Y-160200000D03*
%TD*%
D11*
%TO.C,U29*%
X293674800Y-99415600D03*
D12*
X293674800Y-101955600D03*
X293674800Y-104495600D03*
X293674800Y-107035600D03*
X293674800Y-109575600D03*
X293674800Y-112115600D03*
X293674800Y-114655600D03*
X293674800Y-117195600D03*
X301294800Y-117195600D03*
X301294800Y-114655600D03*
X301294800Y-112115600D03*
X301294800Y-109575600D03*
X301294800Y-107035600D03*
X301294800Y-104495600D03*
X301294800Y-101955600D03*
X301294800Y-99415600D03*
%TD*%
D11*
%TO.C,U38*%
X186944000Y-124764800D03*
D12*
X186944000Y-127304800D03*
X186944000Y-129844800D03*
X186944000Y-132384800D03*
X186944000Y-134924800D03*
X186944000Y-137464800D03*
X186944000Y-140004800D03*
X186944000Y-142544800D03*
X194564000Y-142544800D03*
X194564000Y-140004800D03*
X194564000Y-137464800D03*
X194564000Y-134924800D03*
X194564000Y-132384800D03*
X194564000Y-129844800D03*
X194564000Y-127304800D03*
X194564000Y-124764800D03*
%TD*%
D13*
%TO.C,C5*%
X63997200Y-125780800D03*
X68997200Y-125780800D03*
%TD*%
D19*
%TO.C,U70*%
X318980000Y-178000000D03*
D20*
X316440000Y-178000000D03*
X313900000Y-178000000D03*
X311360000Y-178000000D03*
X308820000Y-178000000D03*
X306280000Y-178000000D03*
X303740000Y-178000000D03*
X301200000Y-178000000D03*
X298660000Y-178000000D03*
X296120000Y-178000000D03*
X293580000Y-178000000D03*
X291040000Y-178000000D03*
X288500000Y-178000000D03*
X285960000Y-178000000D03*
X283420000Y-178000000D03*
X280880000Y-178000000D03*
X278340000Y-178000000D03*
X275800000Y-178000000D03*
X273260000Y-178000000D03*
X270720000Y-178000000D03*
X270720000Y-193240000D03*
X273260000Y-193240000D03*
X275800000Y-193240000D03*
X278340000Y-193240000D03*
X280880000Y-193240000D03*
X283420000Y-193240000D03*
X285960000Y-193240000D03*
X288500000Y-193240000D03*
X291040000Y-193240000D03*
X293580000Y-193240000D03*
X296120000Y-193240000D03*
X298660000Y-193240000D03*
X301200000Y-193240000D03*
X303740000Y-193240000D03*
X306280000Y-193240000D03*
X308820000Y-193240000D03*
X311360000Y-193240000D03*
X313900000Y-193240000D03*
X316440000Y-193240000D03*
X318980000Y-193240000D03*
%TD*%
D10*
%TO.C,T2*%
X226200000Y-217700000D03*
%TD*%
D34*
%TO.C,U50*%
X146390000Y-150310000D03*
D12*
X146390000Y-152850000D03*
X146390000Y-155390000D03*
X146390000Y-157930000D03*
X146390000Y-160470000D03*
X146390000Y-163010000D03*
X146390000Y-165550000D03*
X146390000Y-168090000D03*
X154010000Y-168090000D03*
X154010000Y-165550000D03*
X154010000Y-163010000D03*
X154010000Y-160470000D03*
X154010000Y-157930000D03*
X154010000Y-155390000D03*
X154010000Y-152850000D03*
X154010000Y-150310000D03*
%TD*%
D10*
%TO.C,Z39B1*%
X350200000Y-94300000D03*
%TD*%
D28*
%TO.C,GBR3*%
X341900000Y-58820000D03*
D14*
X341900000Y-61360000D03*
X341900000Y-63900000D03*
X341900000Y-66440000D03*
X341900000Y-68980000D03*
X341900000Y-71520000D03*
X341900000Y-74060000D03*
X341900000Y-76600000D03*
X341900000Y-79140000D03*
%TD*%
D15*
%TO.C,Z9*%
X287540000Y-90525000D03*
D16*
X287540000Y-93065000D03*
X285000000Y-90525000D03*
X285000000Y-93065000D03*
X282460000Y-90525000D03*
X282460000Y-93065000D03*
%TD*%
D11*
%TO.C,U26*%
X214934800Y-96875600D03*
D12*
X214934800Y-99415600D03*
X214934800Y-101955600D03*
X214934800Y-104495600D03*
X214934800Y-107035600D03*
X214934800Y-109575600D03*
X214934800Y-112115600D03*
X214934800Y-114655600D03*
X222554800Y-114655600D03*
X222554800Y-112115600D03*
X222554800Y-109575600D03*
X222554800Y-107035600D03*
X222554800Y-104495600D03*
X222554800Y-101955600D03*
X222554800Y-99415600D03*
X222554800Y-96875600D03*
%TD*%
D13*
%TO.C,C9*%
X85344000Y-156576400D03*
X85344000Y-151576400D03*
%TD*%
D19*
%TO.C,U55*%
X232680000Y-149600000D03*
D20*
X230140000Y-149600000D03*
X227600000Y-149600000D03*
X225060000Y-149600000D03*
X222520000Y-149600000D03*
X219980000Y-149600000D03*
X217440000Y-149600000D03*
X214900000Y-149600000D03*
X214900000Y-157220000D03*
X217440000Y-157220000D03*
X219980000Y-157220000D03*
X222520000Y-157220000D03*
X225060000Y-157220000D03*
X227600000Y-157220000D03*
X230140000Y-157220000D03*
X232680000Y-157220000D03*
%TD*%
D13*
%TO.C,C51*%
X92300000Y-213700000D03*
X92300000Y-208700000D03*
%TD*%
D17*
%TO.C,U77*%
X288740000Y-200800000D03*
D14*
X286200000Y-200800000D03*
X283660000Y-200800000D03*
X281120000Y-200800000D03*
X278580000Y-200800000D03*
X276040000Y-200800000D03*
X273500000Y-200800000D03*
X270960000Y-200800000D03*
X268420000Y-200800000D03*
X265880000Y-200800000D03*
X263340000Y-200800000D03*
X260800000Y-200800000D03*
X258260000Y-200800000D03*
X255720000Y-200800000D03*
X255720000Y-216040000D03*
X258260000Y-216040000D03*
X260800000Y-216040000D03*
X263340000Y-216040000D03*
X265880000Y-216040000D03*
X268420000Y-216040000D03*
X270960000Y-216040000D03*
X273500000Y-216040000D03*
X276040000Y-216040000D03*
X278580000Y-216040000D03*
X281120000Y-216040000D03*
X283660000Y-216040000D03*
X286200000Y-216040000D03*
X288740000Y-216040000D03*
%TD*%
D13*
%TO.C,C14*%
X171800000Y-216100000D03*
X171800000Y-211100000D03*
%TD*%
%TO.C,C73*%
X82256000Y-114427000D03*
X77256000Y-114427000D03*
%TD*%
%TO.C,R70*%
X277200000Y-129794000D03*
X277200000Y-139954000D03*
%TD*%
D35*
%TO.C,C18*%
X143814800Y-140705200D03*
X143814800Y-143205200D03*
%TD*%
D13*
%TO.C,R78*%
X260604000Y-146253200D03*
X250444000Y-146253200D03*
%TD*%
D10*
%TO.C,T5*%
X137700000Y-74100000D03*
%TD*%
D13*
%TO.C,C30*%
X74081000Y-111000000D03*
X79081000Y-111000000D03*
%TD*%
D17*
%TO.C,C25*%
X184100000Y-206794887D03*
D14*
X184100000Y-209294887D03*
%TD*%
D13*
%TO.C,C22*%
X85506200Y-203096400D03*
X90506200Y-203096400D03*
%TD*%
D11*
%TO.C,U27*%
X232580000Y-96860000D03*
D12*
X232580000Y-99400000D03*
X232580000Y-101940000D03*
X232580000Y-104480000D03*
X232580000Y-107020000D03*
X232580000Y-109560000D03*
X232580000Y-112100000D03*
X232580000Y-114640000D03*
X240200000Y-114640000D03*
X240200000Y-112100000D03*
X240200000Y-109560000D03*
X240200000Y-107020000D03*
X240200000Y-104480000D03*
X240200000Y-101940000D03*
X240200000Y-99400000D03*
X240200000Y-96860000D03*
%TD*%
D13*
%TO.C,C62*%
X200100000Y-181800000D03*
X200100000Y-176800000D03*
%TD*%
D14*
%TO.C,R71*%
X280900000Y-170745000D03*
X280900000Y-168205000D03*
%TD*%
D10*
%TO.C,Z34B1*%
X349600000Y-124800000D03*
%TD*%
D13*
%TO.C,R32*%
X202100000Y-124900000D03*
X202100000Y-135060000D03*
%TD*%
D23*
%TO.C,REF\u002A\u002A*%
X290900000Y-225200000D03*
%TD*%
D26*
%TO.C,D13*%
X61100000Y-196180000D03*
D14*
X61100000Y-186020000D03*
%TD*%
D13*
%TO.C,R68*%
X279700000Y-119700000D03*
X279700000Y-109540000D03*
%TD*%
D19*
%TO.C,U2*%
X98190000Y-71990000D03*
D20*
X95650000Y-71990000D03*
X93110000Y-71990000D03*
X90570000Y-71990000D03*
X88030000Y-71990000D03*
X85490000Y-71990000D03*
X82950000Y-71990000D03*
X80410000Y-71990000D03*
X80410000Y-79610000D03*
X82950000Y-79610000D03*
X85490000Y-79610000D03*
X88030000Y-79610000D03*
X90570000Y-79610000D03*
X93110000Y-79610000D03*
X95650000Y-79610000D03*
X98190000Y-79610000D03*
%TD*%
D13*
%TO.C,C27*%
X119700000Y-85598000D03*
X114700000Y-85598000D03*
%TD*%
%TO.C,C45*%
X98044000Y-121818400D03*
X93044000Y-121818400D03*
%TD*%
%TO.C,C20*%
X66400000Y-116100000D03*
X66400000Y-111100000D03*
%TD*%
%TO.C,C63*%
X169418000Y-181813200D03*
X174418000Y-181813200D03*
%TD*%
D10*
%TO.C,Z2*%
X133800000Y-71600000D03*
%TD*%
D26*
%TO.C,C2*%
X61900000Y-115405112D03*
D14*
X61900000Y-112905112D03*
%TD*%
D13*
%TO.C,R62*%
X334619600Y-151400000D03*
X324459600Y-151400000D03*
%TD*%
D10*
%TO.C,Z23B1*%
X322249800Y-160299400D03*
%TD*%
D11*
%TO.C,U47*%
X108000800Y-152780000D03*
D12*
X108000800Y-155320000D03*
X108000800Y-157860000D03*
X108000800Y-160400000D03*
X108000800Y-162940000D03*
X108000800Y-165480000D03*
X108000800Y-168020000D03*
X115620800Y-168020000D03*
X115620800Y-165480000D03*
X115620800Y-162940000D03*
X115620800Y-160400000D03*
X115620800Y-157860000D03*
X115620800Y-155320000D03*
X115620800Y-152780000D03*
%TD*%
D13*
%TO.C,C59*%
X209900000Y-216700000D03*
X204900000Y-216700000D03*
%TD*%
D14*
%TO.C,R57*%
X272161000Y-114481400D03*
X272161000Y-111941400D03*
%TD*%
D10*
%TO.C,T15*%
X311277000Y-217551000D03*
%TD*%
D18*
%TO.C,D7*%
X306420000Y-207400000D03*
D14*
X316580000Y-207400000D03*
%TD*%
D13*
%TO.C,R210*%
X82727800Y-206476600D03*
X72567800Y-206476600D03*
%TD*%
%TO.C,R60*%
X193100000Y-203100000D03*
X203260000Y-203100000D03*
%TD*%
%TO.C,C70*%
X298800000Y-143100000D03*
X293800000Y-143100000D03*
%TD*%
D10*
%TO.C,Z23A1*%
X249400000Y-153000000D03*
%TD*%
D13*
%TO.C,C68*%
X106669767Y-220482233D03*
X103134233Y-224017767D03*
%TD*%
%TO.C,R26*%
X161600000Y-106800000D03*
X171760000Y-106800000D03*
%TD*%
D24*
%TO.C,C17*%
X248296312Y-157226000D03*
D14*
X245796312Y-157226000D03*
%TD*%
D10*
%TO.C,T1*%
X313944000Y-217551000D03*
%TD*%
D13*
%TO.C,R40*%
X237900000Y-190900000D03*
X237900000Y-180740000D03*
%TD*%
D36*
%TO.C,Q2*%
X80664200Y-182237800D03*
D37*
X81944200Y-180937800D03*
X83204200Y-182237800D03*
%TD*%
D13*
%TO.C,R19*%
X316534800Y-199847200D03*
X306374800Y-199847200D03*
%TD*%
D14*
%TO.C,R55*%
X275158200Y-114506800D03*
X275158200Y-111966800D03*
%TD*%
D11*
%TO.C,U60*%
X95380000Y-178200000D03*
D12*
X95380000Y-180740000D03*
X95380000Y-183280000D03*
X95380000Y-185820000D03*
X95380000Y-188360000D03*
X95380000Y-190900000D03*
X95380000Y-193440000D03*
X103000000Y-193440000D03*
X103000000Y-190900000D03*
X103000000Y-188360000D03*
X103000000Y-185820000D03*
X103000000Y-183280000D03*
X103000000Y-180740000D03*
X103000000Y-178200000D03*
%TD*%
D23*
%TO.C,REF\u002A\u002A*%
X94000000Y-225200000D03*
%TD*%
D13*
%TO.C,R17*%
X293790000Y-201000000D03*
X303950000Y-201000000D03*
%TD*%
D11*
%TO.C,U31*%
X90390000Y-124710000D03*
D12*
X90390000Y-127250000D03*
X90390000Y-129790000D03*
X90390000Y-132330000D03*
X90390000Y-134870000D03*
X90390000Y-137410000D03*
X90390000Y-139950000D03*
X90390000Y-142490000D03*
X98010000Y-142490000D03*
X98010000Y-139950000D03*
X98010000Y-137410000D03*
X98010000Y-134870000D03*
X98010000Y-132330000D03*
X98010000Y-129790000D03*
X98010000Y-127250000D03*
X98010000Y-124710000D03*
%TD*%
D13*
%TO.C,C4*%
X79000000Y-121800000D03*
X84000000Y-121800000D03*
%TD*%
D36*
%TO.C,Q1*%
X61639600Y-201694200D03*
D37*
X62919600Y-200394200D03*
X64179600Y-201694200D03*
%TD*%
D13*
%TO.C,C77*%
X113944400Y-147604800D03*
X113944400Y-145104800D03*
%TD*%
%TO.C,C40*%
X248056400Y-53136800D03*
X253056400Y-53136800D03*
%TD*%
%TO.C,C64*%
X307400000Y-168600000D03*
X302400000Y-168600000D03*
%TD*%
D11*
%TO.C,U44*%
X298780000Y-124860000D03*
D12*
X298780000Y-127400000D03*
X298780000Y-129940000D03*
X298780000Y-132480000D03*
X298780000Y-135020000D03*
X298780000Y-137560000D03*
X298780000Y-140100000D03*
X306400000Y-140100000D03*
X306400000Y-137560000D03*
X306400000Y-135020000D03*
X306400000Y-132480000D03*
X306400000Y-129940000D03*
X306400000Y-127400000D03*
X306400000Y-124860000D03*
%TD*%
D13*
%TO.C,C58*%
X200000000Y-193200000D03*
X200000000Y-188200000D03*
%TD*%
D17*
%TO.C,C54*%
X249200000Y-221394887D03*
D14*
X249200000Y-223894887D03*
%TD*%
D13*
%TO.C,C39*%
X227725600Y-53136800D03*
X232725600Y-53136800D03*
%TD*%
D11*
%TO.C,U4*%
X120954800Y-56388000D03*
D12*
X120954800Y-58928000D03*
X120954800Y-61468000D03*
X120954800Y-64008000D03*
X120954800Y-66548000D03*
X120954800Y-69088000D03*
X120954800Y-71628000D03*
X128574800Y-71628000D03*
X128574800Y-69088000D03*
X128574800Y-66548000D03*
X128574800Y-64008000D03*
X128574800Y-61468000D03*
X128574800Y-58928000D03*
X128574800Y-56388000D03*
%TD*%
D19*
%TO.C,U14*%
X331840000Y-71280000D03*
D20*
X329300000Y-71280000D03*
X326760000Y-71280000D03*
X324220000Y-71280000D03*
X321680000Y-71280000D03*
X319140000Y-71280000D03*
X316600000Y-71280000D03*
X314060000Y-71280000D03*
X314060000Y-78900000D03*
X316600000Y-78900000D03*
X319140000Y-78900000D03*
X321680000Y-78900000D03*
X324220000Y-78900000D03*
X326760000Y-78900000D03*
X329300000Y-78900000D03*
X331840000Y-78900000D03*
%TD*%
D13*
%TO.C,R58*%
X175100000Y-216400000D03*
X175100000Y-206240000D03*
%TD*%
%TO.C,R31*%
X161600000Y-96800000D03*
X171760000Y-96800000D03*
%TD*%
D19*
%TO.C,U25*%
X192240000Y-106790000D03*
D20*
X189700000Y-106790000D03*
X187160000Y-106790000D03*
X184620000Y-106790000D03*
X182080000Y-106790000D03*
X179540000Y-106790000D03*
X177000000Y-106790000D03*
X174460000Y-106790000D03*
X174460000Y-114410000D03*
X177000000Y-114410000D03*
X179540000Y-114410000D03*
X182080000Y-114410000D03*
X184620000Y-114410000D03*
X187160000Y-114410000D03*
X189700000Y-114410000D03*
X192240000Y-114410000D03*
%TD*%
D11*
%TO.C,U32*%
X105580000Y-127200000D03*
D12*
X105580000Y-129740000D03*
X105580000Y-132280000D03*
X105580000Y-134820000D03*
X105580000Y-137360000D03*
X105580000Y-139900000D03*
X105580000Y-142440000D03*
X113200000Y-142440000D03*
X113200000Y-139900000D03*
X113200000Y-137360000D03*
X113200000Y-134820000D03*
X113200000Y-132280000D03*
X113200000Y-129740000D03*
X113200000Y-127200000D03*
%TD*%
D10*
%TO.C,Z4*%
X133756400Y-61468000D03*
%TD*%
D13*
%TO.C,R27*%
X161600000Y-101800000D03*
X171760000Y-101800000D03*
%TD*%
%TO.C,R76*%
X326800000Y-164600000D03*
X326800000Y-154440000D03*
%TD*%
%TO.C,C57*%
X142382167Y-220939433D03*
X138846633Y-224474967D03*
%TD*%
D26*
%TO.C,D11*%
X98094800Y-168079998D03*
D14*
X98094800Y-162999998D03*
%TD*%
D11*
%TO.C,U49*%
X133380000Y-152840000D03*
D12*
X133380000Y-155380000D03*
X133380000Y-157920000D03*
X133380000Y-160460000D03*
X133380000Y-163000000D03*
X133380000Y-165540000D03*
X133380000Y-168080000D03*
X141000000Y-168080000D03*
X141000000Y-165540000D03*
X141000000Y-163000000D03*
X141000000Y-160460000D03*
X141000000Y-157920000D03*
X141000000Y-155380000D03*
X141000000Y-152840000D03*
%TD*%
D15*
%TO.C,J15*%
X327761600Y-211709000D03*
D16*
X327761600Y-209169000D03*
X330301600Y-211709000D03*
X330301600Y-209169000D03*
X332841600Y-211709000D03*
X332841600Y-209169000D03*
%TD*%
D13*
%TO.C,R48*%
X336400000Y-81400000D03*
X336400000Y-71240000D03*
%TD*%
D24*
%TO.C,C71*%
X63605112Y-121600000D03*
D14*
X61105112Y-121600000D03*
%TD*%
D10*
%TO.C,J34*%
X118110000Y-129743200D03*
%TD*%
D13*
%TO.C,R3*%
X90300000Y-147600000D03*
X80140000Y-147600000D03*
%TD*%
D10*
%TO.C,Z38B1*%
X350200000Y-96900000D03*
%TD*%
%TO.C,Z24*%
X133705600Y-58928000D03*
%TD*%
D11*
%TO.C,U62*%
X121000000Y-175660000D03*
D12*
X121000000Y-178200000D03*
X121000000Y-180740000D03*
X121000000Y-183280000D03*
X121000000Y-185820000D03*
X121000000Y-188360000D03*
X121000000Y-190900000D03*
X121000000Y-193440000D03*
X128620000Y-193440000D03*
X128620000Y-190900000D03*
X128620000Y-188360000D03*
X128620000Y-185820000D03*
X128620000Y-183280000D03*
X128620000Y-180740000D03*
X128620000Y-178200000D03*
X128620000Y-175660000D03*
%TD*%
D10*
%TO.C,Z1*%
X133756400Y-76606400D03*
%TD*%
D15*
%TO.C,Z6*%
X347500000Y-121000000D03*
D16*
X344960000Y-121000000D03*
X347500000Y-118460000D03*
X344960000Y-118460000D03*
X347500000Y-115920000D03*
X344960000Y-115920000D03*
X347500000Y-113380000D03*
X344960000Y-113380000D03*
X347500000Y-110840000D03*
X344960000Y-110840000D03*
X347500000Y-108300000D03*
X344960000Y-108300000D03*
X347500000Y-105760000D03*
X344960000Y-105760000D03*
X347500000Y-103220000D03*
X344960000Y-103220000D03*
X347500000Y-100680000D03*
X344960000Y-100680000D03*
X347500000Y-98140000D03*
X344960000Y-98140000D03*
X347500000Y-95600000D03*
X344960000Y-95600000D03*
X347500000Y-93060000D03*
X344960000Y-93060000D03*
X347500000Y-90520000D03*
X344960000Y-90520000D03*
X347500000Y-87980000D03*
X344960000Y-87980000D03*
X347500000Y-85440000D03*
X344960000Y-85440000D03*
X347500000Y-82900000D03*
X344960000Y-82900000D03*
%TD*%
D11*
%TO.C,U40*%
X227380000Y-124800000D03*
D12*
X227380000Y-127340000D03*
X227380000Y-129880000D03*
X227380000Y-132420000D03*
X227380000Y-134960000D03*
X227380000Y-137500000D03*
X227380000Y-140040000D03*
X235000000Y-140040000D03*
X235000000Y-137500000D03*
X235000000Y-134960000D03*
X235000000Y-132420000D03*
X235000000Y-129880000D03*
X235000000Y-127340000D03*
X235000000Y-124800000D03*
%TD*%
D17*
%TO.C,C55*%
X171094400Y-221324800D03*
D14*
X171094400Y-223824800D03*
%TD*%
D11*
%TO.C,U58*%
X214760000Y-163060000D03*
D12*
X214760000Y-165600000D03*
X214760000Y-168140000D03*
X214760000Y-170680000D03*
X214760000Y-173220000D03*
X214760000Y-175760000D03*
X214760000Y-178300000D03*
X214760000Y-180840000D03*
X214760000Y-183380000D03*
X214760000Y-185920000D03*
X214760000Y-188460000D03*
X214760000Y-191000000D03*
X214760000Y-193540000D03*
X214760000Y-196080000D03*
X214760000Y-198620000D03*
X214760000Y-201160000D03*
X214760000Y-203700000D03*
X214760000Y-206240000D03*
X214760000Y-208780000D03*
X214760000Y-211320000D03*
X230000000Y-211320000D03*
X230000000Y-208780000D03*
X230000000Y-206240000D03*
X230000000Y-203700000D03*
X230000000Y-201160000D03*
X230000000Y-198620000D03*
X230000000Y-196080000D03*
X230000000Y-193540000D03*
X230000000Y-191000000D03*
X230000000Y-188460000D03*
X230000000Y-185920000D03*
X230000000Y-183380000D03*
X230000000Y-180840000D03*
X230000000Y-178300000D03*
X230000000Y-175760000D03*
X230000000Y-173220000D03*
X230000000Y-170680000D03*
X230000000Y-168140000D03*
X230000000Y-165600000D03*
X230000000Y-163060000D03*
%TD*%
D15*
%TO.C,Z7*%
X307940000Y-90525000D03*
D16*
X307940000Y-93065000D03*
X305400000Y-90525000D03*
X305400000Y-93065000D03*
X302860000Y-90525000D03*
X302860000Y-93065000D03*
%TD*%
D13*
%TO.C,C47*%
X117900000Y-137500000D03*
X117900000Y-142500000D03*
%TD*%
D11*
%TO.C,U46*%
X74879200Y-163626800D03*
D12*
X74879200Y-166166800D03*
X74879200Y-168706800D03*
X74879200Y-171246800D03*
X82499200Y-171246800D03*
X82499200Y-168706800D03*
X82499200Y-166166800D03*
X82499200Y-163626800D03*
%TD*%
D11*
%TO.C,U33*%
X121000000Y-127260000D03*
D12*
X121000000Y-129800000D03*
X121000000Y-132340000D03*
X121000000Y-134880000D03*
X121000000Y-137420000D03*
X121000000Y-139960000D03*
X121000000Y-142500000D03*
X128620000Y-142500000D03*
X128620000Y-139960000D03*
X128620000Y-137420000D03*
X128620000Y-134880000D03*
X128620000Y-132340000D03*
X128620000Y-129800000D03*
X128620000Y-127260000D03*
%TD*%
D11*
%TO.C,U43*%
X285980000Y-124800000D03*
D12*
X285980000Y-127340000D03*
X285980000Y-129880000D03*
X285980000Y-132420000D03*
X285980000Y-134960000D03*
X285980000Y-137500000D03*
X285980000Y-140040000D03*
X293600000Y-140040000D03*
X293600000Y-137500000D03*
X293600000Y-134960000D03*
X293600000Y-132420000D03*
X293600000Y-129880000D03*
X293600000Y-127340000D03*
X293600000Y-124800000D03*
%TD*%
D13*
%TO.C,R66*%
X315500000Y-140100000D03*
X315500000Y-129940000D03*
%TD*%
%TO.C,R28*%
X161600000Y-99300000D03*
X171760000Y-99300000D03*
%TD*%
D11*
%TO.C,U34*%
X133600000Y-127280000D03*
D12*
X133600000Y-129820000D03*
X133600000Y-132360000D03*
X133600000Y-134900000D03*
X133600000Y-137440000D03*
X133600000Y-139980000D03*
X133600000Y-142520000D03*
X141220000Y-142520000D03*
X141220000Y-139980000D03*
X141220000Y-137440000D03*
X141220000Y-134900000D03*
X141220000Y-132360000D03*
X141220000Y-129820000D03*
X141220000Y-127280000D03*
%TD*%
D15*
%TO.C,J7*%
X77720000Y-214900000D03*
D16*
X77720000Y-212360000D03*
X80260000Y-214900000D03*
X80260000Y-212360000D03*
X82800000Y-214900000D03*
X82800000Y-212360000D03*
%TD*%
D13*
%TO.C,R75*%
X316560000Y-204900000D03*
X306400000Y-204900000D03*
%TD*%
%TO.C,C33*%
X112300000Y-111000000D03*
X117300000Y-111000000D03*
%TD*%
D11*
%TO.C,U45*%
X74879200Y-150418800D03*
D12*
X74879200Y-152958800D03*
X74879200Y-155498800D03*
X74879200Y-158038800D03*
X82499200Y-158038800D03*
X82499200Y-155498800D03*
X82499200Y-152958800D03*
X82499200Y-150418800D03*
%TD*%
D11*
%TO.C,U61*%
X108000000Y-175660000D03*
D12*
X108000000Y-178200000D03*
X108000000Y-180740000D03*
X108000000Y-183280000D03*
X108000000Y-185820000D03*
X108000000Y-188360000D03*
X108000000Y-190900000D03*
X108000000Y-193440000D03*
X115620000Y-193440000D03*
X115620000Y-190900000D03*
X115620000Y-188360000D03*
X115620000Y-185820000D03*
X115620000Y-183280000D03*
X115620000Y-180740000D03*
X115620000Y-178200000D03*
X115620000Y-175660000D03*
%TD*%
D10*
%TO.C,T18*%
X322910200Y-217932000D03*
%TD*%
D13*
%TO.C,C24*%
X145034000Y-85598000D03*
X140034000Y-85598000D03*
%TD*%
D10*
%TO.C,T4*%
X226400000Y-101400000D03*
%TD*%
D19*
%TO.C,U65*%
X166640000Y-186800000D03*
D20*
X164100000Y-186800000D03*
X161560000Y-186800000D03*
X159020000Y-186800000D03*
X156480000Y-186800000D03*
X153940000Y-186800000D03*
X151400000Y-186800000D03*
X148860000Y-186800000D03*
X146320000Y-186800000D03*
X146320000Y-194420000D03*
X148860000Y-194420000D03*
X151400000Y-194420000D03*
X153940000Y-194420000D03*
X156480000Y-194420000D03*
X159020000Y-194420000D03*
X161560000Y-194420000D03*
X164100000Y-194420000D03*
X166640000Y-194420000D03*
%TD*%
D13*
%TO.C,R207*%
X73820000Y-176900000D03*
X83980000Y-176900000D03*
%TD*%
%TO.C,C56*%
X218300000Y-215000000D03*
X223300000Y-215000000D03*
%TD*%
%TO.C,R74*%
X306400000Y-202400000D03*
X316560000Y-202400000D03*
%TD*%
%TO.C,C50*%
X102100000Y-175100000D03*
X97100000Y-175100000D03*
%TD*%
%TO.C,C67*%
X118313200Y-174305600D03*
X118313200Y-169305600D03*
%TD*%
D11*
%TO.C,U10*%
X232800000Y-56160000D03*
D12*
X232800000Y-58700000D03*
X232800000Y-61240000D03*
X232800000Y-63780000D03*
X232800000Y-66320000D03*
X232800000Y-68860000D03*
X232800000Y-71400000D03*
X232800000Y-73940000D03*
X232800000Y-76480000D03*
X232800000Y-79020000D03*
X232800000Y-81560000D03*
X232800000Y-84100000D03*
X248040000Y-84100000D03*
X248040000Y-81560000D03*
X248040000Y-79020000D03*
X248040000Y-76480000D03*
X248040000Y-73940000D03*
X248040000Y-71400000D03*
X248040000Y-68860000D03*
X248040000Y-66320000D03*
X248040000Y-63780000D03*
X248040000Y-61240000D03*
X248040000Y-58700000D03*
X248040000Y-56160000D03*
%TD*%
D26*
%TO.C,D8*%
X103200000Y-170637200D03*
D14*
X103200000Y-165557200D03*
%TD*%
D13*
%TO.C,R39*%
X240500000Y-190900000D03*
X240500000Y-180740000D03*
%TD*%
M02*
